<?xml version="1.0" encoding="UTF-8" standalone="no"?>
<!-- Created with Inkscape (http://www.inkscape.org/) -->

<svg
   width="190.40041mm"
   height="182.50914mm"
   viewBox="0 0 190.40041 182.50914"
   version="1.1"
   id="svg8"
   inkscape:version="1.1.1 (c3084ef, 2021-09-22)"
   sodipodi:docname="juju.svg"
   inkscape:export-filename="/Users/christian/Nextcloud/Documents/juju/juju_3000.png"
   inkscape:export-xdpi="400.20999"
   inkscape:export-ydpi="400.20999"
   xmlns:inkscape="http://www.inkscape.org/namespaces/inkscape"
   xmlns:sodipodi="http://sodipodi.sourceforge.net/DTD/sodipodi-0.dtd"
   xmlns="http://www.w3.org/2000/svg"
   xmlns:svg="http://www.w3.org/2000/svg"
   xmlns:rdf="http://www.w3.org/1999/02/22-rdf-syntax-ns#"
   xmlns:cc="http://creativecommons.org/ns#"
   xmlns:dc="http://purl.org/dc/elements/1.1/">
  <defs
     id="defs2" />
  <sodipodi:namedview
     id="base"
     pagecolor="#ffffff"
     bordercolor="#666666"
     borderopacity="1.0"
     inkscape:pageopacity="0"
     inkscape:pageshadow="2"
     inkscape:zoom="1.3130001"
     inkscape:cx="381.94969"
     inkscape:cy="393.37391"
     inkscape:document-units="mm"
     inkscape:current-layer="layer1"
     showgrid="true"
     inkscape:window-width="2131"
     inkscape:window-height="1639"
     inkscape:window-x="877"
     inkscape:window-y="25"
     inkscape:window-maximized="0"
     fit-margin-top="0"
     fit-margin-left="0"
     fit-margin-right="0"
     fit-margin-bottom="0"
     inkscape:snap-to-guides="false"
     inkscape:pagecheckerboard="false"
     showborder="true">
    <inkscape:grid
       type="xygrid"
       id="grid3713"
       originx="241.99653"
       originy="-132.08007" />
  </sodipodi:namedview>
  <metadata
     id="metadata5">
    <rdf:RDF>
      <cc:Work
         rdf:about="">
        <dc:format>image/svg+xml</dc:format>
        <dc:type
           rdf:resource="http://purl.org/dc/dcmitype/StillImage" />
      </cc:Work>
    </rdf:RDF>
  </metadata>
  <g
     inkscape:label="Layer 1"
     inkscape:groupmode="layer"
     id="layer1"
     transform="translate(241.99648,28.238795)">
    <flowRoot
       xml:space="preserve"
       id="flowRoot4645"
       style="font-style:normal;font-weight:normal;font-size:40px;line-height:1.25;font-family:sans-serif;letter-spacing:0px;word-spacing:0px;fill:#000000;fill-opacity:1;stroke:none"><flowRegion
         id="flowRegion4647"><rect
           id="rect4649"
           width="600"
           height="480"
           x="982.46582"
           y="1185.3229" /></flowRegion><flowPara
         id="flowPara4651" /></flowRoot>
    <g
       aria-label="TSV 1847 Weißenhorn "
       id="text9103"
       style="font-size:16.9333px;line-height:1.25;stroke-width:0.264583">
      <path
         d="m -231.56199,143.13306 h -4.39869 v 10.85617 h -1.63711 v -10.85617 h -4.39869 v -1.4552 h 10.43449 z"
         id="path16020" />
      <path
         d="m -220.94561,150.47524 q 0,0.71933 -0.33899,1.42213 -0.33073,0.7028 -0.93431,1.19062 -0.66146,0.52917 -1.54616,0.82682 -0.87643,0.29766 -2.11666,0.29766 -1.33118,0 -2.39778,-0.24805 -1.05833,-0.24804 -2.158,-0.73587 v -2.05052 h 0.11575 q 0.93431,0.77722 2.15801,1.1989 1.22369,0.42167 2.29856,0.42167 1.52135,0 2.36471,-0.5705 0.85162,-0.57051 0.85162,-1.52135 0,-0.81856 -0.40514,-1.20716 -0.39687,-0.38861 -1.21543,-0.60358 -0.62011,-0.16537 -1.34772,-0.27285 -0.71933,-0.10749 -1.52961,-0.27285 -1.63711,-0.34727 -2.43086,-1.18236 -0.78548,-0.84336 -0.78548,-2.19107 0,-1.54616 1.30638,-2.53008 1.30638,-0.99218 3.31555,-0.99218 1.29811,0 2.38125,0.24804 1.08313,0.24805 1.91822,0.61185 v 1.93476 h -0.11575 q -0.7028,-0.59531 -1.85208,-0.98391 -1.14102,-0.39688 -2.33991,-0.39688 -1.31464,0 -2.11666,0.5457 -0.79375,0.54571 -0.79375,1.4056 0,0.76894 0.39688,1.20716 0.39687,0.43821 1.39732,0.66972 0.52917,0.11576 1.50482,0.28112 0.97565,0.16537 1.65364,0.339 1.37253,0.3638 2.06706,1.09967 0.69452,0.73587 0.69452,2.05879 z"
         id="path16022" />
      <path
         d="m -208.60943,141.67786 -4.48137,12.31137 h -2.18281 l -4.48137,-12.31137 h 1.75286 l 3.86125,10.83136 3.86126,-10.83136 z"
         id="path16024" />
      <path
         d="m -193.4786,153.98923 h -6.66418 v -1.25677 h 2.56314 v -8.25168 h -2.56314 v -1.12447 q 0.5209,0 1.11621,-0.0827 0.59531,-0.0909 0.90123,-0.25631 0.38034,-0.20671 0.59531,-0.5209 0.22324,-0.32246 0.25632,-0.85989 h 1.28157 v 11.09594 h 2.51354 z"
         id="path16026" />
      <path
         d="m -181.9031,150.55792 q 0,1.59576 -1.2485,2.6541 -1.24024,1.05833 -3.12539,1.05833 -2.00091,0 -3.19153,-1.03353 -1.18235,-1.03353 -1.18235,-2.64583 0,-1.02526 0.59531,-1.85208 0.59531,-0.83509 1.67845,-1.32291 v -0.0496 q -0.99219,-0.52917 -1.47175,-1.15755 -0.47128,-0.62839 -0.47128,-1.57096 0,-1.38906 1.14101,-2.3151 1.14101,-0.92604 2.90214,-0.92604 1.84381,0 2.94348,0.8847 1.09968,0.8847 1.09968,2.24895 0,0.83509 -0.5209,1.64538 -0.5209,0.80201 -1.52962,1.25676 v 0.0496 q 1.15755,0.4961 1.7694,1.2237 0.61185,0.7276 0.61185,1.85208 z m -1.95957,-6.01099 q 0,-0.8847 -0.68626,-1.4056 -0.678,-0.52916 -1.73633,-0.52916 -1.04179,0 -1.71152,0.49609 -0.66145,0.49609 -0.66145,1.33945 0,0.59531 0.33072,1.03353 0.339,0.42994 1.01699,0.76894 0.30593,0.14883 0.87644,0.38861 0.57877,0.23977 1.12447,0.39687 0.81856,-0.5457 1.13275,-1.13274 0.31419,-0.58705 0.31419,-1.35599 z m 0.25631,6.16808 q 0,-0.76067 -0.33899,-1.21542 -0.33073,-0.46302 -1.30638,-0.92604 -0.38861,-0.1819 -0.85163,-0.339 -0.46302,-0.15709 -1.23196,-0.43821 -0.74414,0.40514 -1.19889,1.09967 -0.44648,0.69453 -0.44648,1.57096 0,1.11621 0.76894,1.84381 0.76894,0.7276 1.9513,0.7276 1.20716,0 1.92649,-0.62011 0.7276,-0.62012 0.7276,-1.70326 z"
         id="path16028" />
      <path
         d="m -170.93119,150.52485 h -1.82727 v 3.46438 h -1.5875 v -3.46438 h -5.89523 v -1.90169 l 5.96138,-6.9453 h 1.52135 v 7.52407 h 1.82727 z m -3.41477,-1.32292 v -5.55624 l -4.77076,5.55624 z"
         id="path16030" />
      <path
         d="m -160.39749,143.52167 -5.57277,10.46756 h -1.7694 l 5.92831,-10.86443 h -7.01145 v -1.44694 h 8.42531 z"
         id="path16032" />
      <path
         d="m -137.37878,141.67786 -3.1998,12.31137 h -1.84381 l -2.58795,-10.21951 -2.53007,10.21951 h -1.80248 l -3.25767,-12.31137 h 1.67845 l 2.58795,10.23605 2.54661,-10.23605 h 1.66191 l 2.57141,10.33526 2.57142,-10.33526 z"
         id="path16034" />
      <path
         d="m -127.36597,149.53266 h -6.80474 q 0,0.85163 0.25631,1.48828 0.25632,0.62838 0.7028,1.03353 0.42995,0.39687 1.01699,0.59531 0.59531,0.19843 1.30638,0.19843 0.94257,0 1.89342,-0.37207 0.95911,-0.38033 1.36425,-0.74413 h 0.0827 v 1.69498 q -0.78548,0.33073 -1.60403,0.55397 -0.81855,0.22324 -1.71979,0.22324 -2.29856,0 -3.5884,-1.24023 -1.28984,-1.2485 -1.28984,-3.5388 0,-2.26549 1.23196,-3.59667 1.24023,-1.33118 3.25768,-1.33118 1.86861,0 2.87733,1.0914 1.017,1.09141 1.017,3.10058 z m -1.51309,-1.19062 q -0.008,-1.2237 -0.62011,-1.89342 -0.60358,-0.66973 -1.84382,-0.66973 -1.2485,0 -1.99263,0.73587 -0.73588,0.73587 -0.83509,1.82728 z"
         id="path16036" />
      <path
         d="m -123.33936,143.20748 h -1.75286 v -1.6123 h 1.75286 z m -0.0992,10.78175 h -1.55443 v -9.2356 h 1.55443 z"
         id="path16038" />
      <path
         d="m -112.24341,150.01222 q 0,1.76939 -1.12448,2.97655 -1.11621,1.19889 -2.92694,1.19889 -0.36381,0 -0.84336,-0.0661 -0.47129,-0.0579 -0.76895,-0.16537 v -1.36425 h 0.0827 q 0.34726,0.19844 0.7524,0.27285 0.41341,0.0744 0.87643,0.0744 0.61185,0 1.0666,-0.23977 0.45476,-0.23978 0.72761,-0.64492 0.28938,-0.42995 0.41341,-0.95085 0.13229,-0.52916 0.13229,-1.15755 0,-1.37252 -0.87643,-2.06705 -0.86816,-0.7028 -2.50527,-0.7028 v -1.24023 q 1.29811,0 1.93476,-0.48783 0.63665,-0.49609 0.63665,-1.56269 0,-0.28939 -0.091,-0.56224 -0.0909,-0.27285 -0.33899,-0.52916 -0.22324,-0.23978 -0.58705,-0.38034 -0.3638,-0.14883 -0.86816,-0.14883 -0.47129,0 -0.85162,0.12402 -0.38034,0.11576 -0.71107,0.43822 -0.30592,0.29766 -0.49609,0.84336 -0.1819,0.5457 -0.1819,1.33118 v 8.98755 h -1.55443 v -8.92967 q 0,-1.02526 0.29766,-1.77767 0.29765,-0.76067 0.82682,-1.2733 0.49609,-0.47956 1.23196,-0.71934 0.74414,-0.24804 1.52135,-0.24804 1.51309,0 2.45566,0.71933 0.95085,0.71933 0.95085,1.96784 0,0.92603 -0.58705,1.66191 -0.58704,0.73587 -1.52135,1.00045 v 0.0744 q 1.35599,0.30593 2.14147,1.23197 0.78548,0.91777 0.78548,2.3151 z"
         id="path16040" />
      <path
         d="m -102.09832,149.53266 h -6.80474 q 0,0.85163 0.25631,1.48828 0.25632,0.62838 0.7028,1.03353 0.42995,0.39687 1.01699,0.59531 0.59531,0.19843 1.30638,0.19843 0.94258,0 1.89342,-0.37207 0.95911,-0.38033 1.36426,-0.74413 h 0.0827 v 1.69498 q -0.78548,0.33073 -1.60403,0.55397 -0.81856,0.22324 -1.71979,0.22324 -2.29857,0 -3.58841,-1.24023 -1.28984,-1.2485 -1.28984,-3.5388 0,-2.26549 1.23197,-3.59667 1.24023,-1.33118 3.25767,-1.33118 1.86862,0 2.87734,1.0914 1.01699,1.09141 1.01699,3.10058 z m -1.51308,-1.19062 q -0.008,-1.2237 -0.62012,-1.89342 -0.60358,-0.66973 -1.84381,-0.66973 -1.2485,0 -1.99264,0.73587 -0.73587,0.73587 -0.83509,1.82728 z"
         id="path16042" />
      <path
         d="m -92.019354,153.98923 h -1.554424 v -5.25859 q 0,-0.63665 -0.07441,-1.19062 -0.07441,-0.56224 -0.272851,-0.87643 -0.206705,-0.34726 -0.595311,-0.51263 -0.388606,-0.17363 -1.008722,-0.17363 -0.636653,0 -1.331183,0.31419 -0.69453,0.31419 -1.331182,0.80202 v 6.89569 h -1.554424 v -9.2356 h 1.554424 v 1.02526 q 0.727603,-0.60358 1.504815,-0.94257 0.777212,-0.339 1.595765,-0.339 1.496546,0 2.282027,0.90123 0.78548,0.90124 0.78548,2.59622 z"
         id="path16044" />
      <path
         d="m -81.303763,153.98923 h -1.554424 v -5.25859 q 0,-0.63665 -0.07441,-1.19062 -0.07441,-0.56224 -0.272851,-0.87643 -0.206705,-0.34726 -0.595311,-0.51263 -0.388606,-0.17363 -1.008722,-0.17363 -0.636652,0 -1.331182,0.31419 -0.69453,0.31419 -1.331183,0.80202 v 6.89569 h -1.554424 v -12.86534 h 1.554424 v 4.655 q 0.727603,-0.60358 1.504815,-0.94257 0.777212,-0.339 1.595765,-0.339 1.496547,0 2.282027,0.90123 0.78548,0.90124 0.78548,2.59622 z"
         id="path16046" />
      <path
         d="m -70.439328,149.37556 q 0,2.25723 -1.15755,3.5636 -1.15755,1.30638 -3.10058,1.30638 -1.959566,0 -3.117116,-1.30638 -1.149282,-1.30637 -1.149282,-3.5636 0,-2.25722 1.149282,-3.5636 1.15755,-1.31464 3.117116,-1.31464 1.94303,0 3.10058,1.31464 1.15755,1.30638 1.15755,3.5636 z m -1.604033,0 q 0,-1.7942 -0.702799,-2.66236 -0.702798,-0.87643 -1.951298,-0.87643 -1.265036,0 -1.967835,0.87643 -0.694529,0.86816 -0.694529,2.66236 0,1.73633 0.702798,2.63756 0.702798,0.89297 1.959566,0.89297 1.240232,0 1.94303,-0.8847 0.711067,-0.89296 0.711067,-2.64583 z"
         id="path16048" />
      <path
         d="m -62.262063,146.44862 h -0.08268 q -0.347265,-0.0827 -0.677993,-0.11576 -0.322461,-0.0413 -0.768944,-0.0413 -0.719335,0 -1.38906,0.32246 -0.669725,0.31419 -1.289841,0.81855 v 6.5567 h -1.554424 v -9.2356 h 1.554424 v 1.36426 q 0.92604,-0.74414 1.628838,-1.05006 0.711066,-0.3142 1.446937,-0.3142 0.405143,0 0.587043,0.0248 0.181901,0.0165 0.545702,0.0744 z"
         id="path16050" />
      <path
         d="m -53.059546,153.98923 h -1.554424 v -5.25859 q 0,-0.63665 -0.07441,-1.19062 -0.07441,-0.56224 -0.272851,-0.87643 -0.206705,-0.34726 -0.595311,-0.51263 -0.388606,-0.17363 -1.008722,-0.17363 -0.636652,0 -1.331182,0.31419 -0.69453,0.31419 -1.331183,0.80202 v 6.89569 h -1.554424 v -9.2356 h 1.554424 v 1.02526 q 0.727603,-0.60358 1.504815,-0.94257 0.777212,-0.339 1.595765,-0.339 1.496547,0 2.282027,0.90123 0.78548,0.90124 0.78548,2.59622 z"
         id="path16052" />
    </g>
    <g
       aria-label="Ju Jutsu"
       id="text4655"
       style="font-size:10.16px;line-height:1.25;text-align:center;letter-spacing:0px;word-spacing:0px;text-anchor:middle;stroke-width:0.105833">
      <path
         d="m -180.10926,130.64557 q 0,1.94469 -1.19063,2.99641 -1.1807,1.05172 -3.175,1.05172 -0.47625,0 -1.27,-0.0893 -0.79375,-0.0794 -1.32953,-0.19844 v -1.83555 h 0.10914 q 0.4068,0.13891 1.00211,0.28774 0.59531,0.14883 1.22039,0.14883 0.91281,0 1.44859,-0.20836 0.54571,-0.20836 0.80368,-0.59531 0.26789,-0.39688 0.33734,-0.97235 0.0794,-0.57547 0.0794,-1.32953 v -8.62211 h -3.1254 v -1.56766 h 5.08993 z"
         style="font-size:20.32px"
         id="path15987" />
      <path
         d="m -167.24059,134.48534 h -1.86531 v -1.23032 q -0.94258,0.74414 -1.80579,1.14102 -0.8632,0.39687 -1.905,0.39687 -1.74625,0 -2.71859,-1.06164 -0.97234,-1.07156 -0.97234,-3.13531 v -7.19336 h 1.86531 v 6.31031 q 0,0.84336 0.0794,1.4486 0.0794,0.59531 0.33735,1.02195 0.26789,0.43656 0.69453,0.635 0.42664,0.19844 1.24023,0.19844 0.7243,0 1.57758,-0.37703 0.86321,-0.37703 1.60735,-0.96242 v -8.27485 h 1.86531 z"
         style="font-size:20.32px"
         id="path15989" />
      <path
         d="m -150.85958,130.64557 q 0,1.94469 -1.19062,2.99641 -1.1807,1.05172 -3.175,1.05172 -0.47625,0 -1.27,-0.0893 -0.79375,-0.0794 -1.32953,-0.19844 v -1.83555 h 0.10914 q 0.4068,0.13891 1.00211,0.28774 0.59531,0.14883 1.22039,0.14883 0.91281,0 1.44859,-0.20836 0.54571,-0.20836 0.80367,-0.59531 0.26789,-0.39688 0.33735,-0.97235 0.0794,-0.57547 0.0794,-1.32953 v -8.62211 h -3.12539 v -1.56766 h 5.08992 z"
         style="font-size:20.32px"
         id="path15991" />
      <path
         d="m -137.9909,134.48534 h -1.86532 v -1.23032 q -0.94257,0.74414 -1.80578,1.14102 -0.8632,0.39687 -1.905,0.39687 -1.74625,0 -2.71859,-1.06164 -0.97234,-1.07156 -0.97234,-3.13531 v -7.19336 h 1.86531 v 6.31031 q 0,0.84336 0.0794,1.4486 0.0794,0.59531 0.33735,1.02195 0.26789,0.43656 0.69453,0.635 0.42664,0.19844 1.24023,0.19844 0.7243,0 1.57758,-0.37703 0.8632,-0.37703 1.60734,-0.96242 v -8.27485 h 1.86532 z"
         style="font-size:20.32px"
         id="path15993" />
      <path
         d="m -128.56512,134.38612 q -0.52586,0.1389 -1.15094,0.2282 -0.61516,0.0893 -1.10133,0.0893 -1.69664,0 -2.57969,-0.91281 -0.88304,-0.91282 -0.88304,-2.92696 v -5.89359 h -1.26008 v -1.56766 h 1.26008 v -3.18492 h 1.86531 v 3.18492 h 3.84969 v 1.56766 h -3.84969 v 5.05023 q 0,0.87313 0.0397,1.36922 0.0397,0.48617 0.27781,0.91281 0.21828,0.39688 0.59531,0.58539 0.38696,0.1786 1.17078,0.1786 0.45641,0 0.9525,-0.12899 0.4961,-0.1389 0.71438,-0.2282 h 0.0992 z"
         style="font-size:20.32px"
         id="path15995" />
      <path
         d="m -118.38528,131.29049 q 0,1.51805 -1.26008,2.49039 -1.25016,0.97235 -3.42305,0.97235 -1.23031,0 -2.26218,-0.28774 -1.02196,-0.29765 -1.71649,-0.64492 v -2.09351 h 0.0992 q 0.88305,0.66476 1.96453,1.06164 1.08149,0.38695 2.07367,0.38695 1.23032,0 1.92485,-0.39688 0.69453,-0.39687 0.69453,-1.25015 0,-0.65485 -0.37703,-0.99219 -0.37703,-0.33734 -1.4486,-0.57547 -0.39687,-0.0893 -1.04179,-0.20836 -0.635,-0.11906 -1.16086,-0.25797 -1.45852,-0.38695 -2.07367,-1.13109 -0.60524,-0.75406 -0.60524,-1.84547 0,-0.68461 0.27781,-1.28984 0.28774,-0.60524 0.86321,-1.08149 0.55562,-0.46633 1.4089,-0.73422 0.86321,-0.27781 1.92485,-0.27781 0.99218,0 2.00422,0.24805 1.02195,0.23812 1.69664,0.58539 v 1.9943 h -0.0992 q -0.71438,-0.52586 -1.73633,-0.88305 -1.02195,-0.36711 -2.00422,-0.36711 -1.02195,0 -1.72641,0.39687 -0.70445,0.38696 -0.70445,1.16086 0,0.68461 0.42664,1.03188 0.41672,0.34726 1.34938,0.56555 0.51593,0.11906 1.15093,0.23812 0.64493,0.11906 1.07157,0.21828 1.29976,0.29766 2.00422,1.02196 0.70445,0.73421 0.70445,1.94468 z"
         style="font-size:20.32px"
         id="path15997" />
      <path
         d="m -106.51872,134.48534 h -1.86531 v -1.23032 q -0.94258,0.74414 -1.80578,1.14102 -0.8632,0.39687 -1.905,0.39687 -1.74625,0 -2.71859,-1.06164 -0.97235,-1.07156 -0.97235,-3.13531 v -7.19336 h 1.86532 v 6.31031 q 0,0.84336 0.0794,1.4486 0.0794,0.59531 0.33734,1.02195 0.26789,0.43656 0.69454,0.635 0.42664,0.19844 1.24023,0.19844 0.7243,0 1.57758,-0.37703 0.8632,-0.37703 1.60734,-0.96242 v -8.27485 h 1.86531 z"
         style="font-size:20.32px"
         id="path15999" />
    </g>
    <g
       id="g2038"
       transform="translate(-10.527141)">
      <ellipse
         ry="22.3006"
         rx="22.67857"
         cx="-136.00502"
         cy="-4.2631946"
         id="path4567"
         style="fill:#ff0000;fill-opacity:0.00904978;stroke:#000000;stroke-width:3.35;stroke-linecap:round;stroke-miterlimit:4;stroke-dasharray:none;stroke-opacity:1" />
      <ellipse
         ry="22.3006"
         rx="22.67857"
         cx="-204.41872"
         cy="110.16909"
         id="path4567-5"
         style="fill:#ff0000;fill-opacity:0.00904978;stroke:#000000;stroke-width:3.35;stroke-linecap:round;stroke-miterlimit:4;stroke-dasharray:none;stroke-opacity:1" />
      <ellipse
         ry="22.3006"
         rx="22.67857"
         cx="-67.024361"
         cy="110.16909"
         id="path4567-6"
         style="fill:#ff0000;fill-opacity:0.00904978;stroke:#000000;stroke-width:3.35;stroke-linecap:round;stroke-miterlimit:4;stroke-dasharray:none;stroke-opacity:1" />
      <text
         id="text4641"
         y="56.05991"
         x="-148.4227"
         style="font-style:normal;font-weight:normal;font-size:5.29167px;line-height:1.25;font-family:sans-serif;letter-spacing:0px;word-spacing:0px;fill:#000000;fill-opacity:1;stroke:none;stroke-width:0.132292"
         xml:space="preserve"><tspan
           style="font-size:25.4px;stroke-width:0.132292"
           y="56.05991"
           x="-148.4227"
           id="tspan4639"
           sodipodi:role="line">柔</tspan><tspan
           id="tspan4643"
           style="font-size:25.4px;stroke-width:0.132292"
           y="87.809906"
           x="-148.4227"
           sodipodi:role="line">術</tspan></text>
      <g
         transform="matrix(0.5,0,0,0.5,-293.71557,118.48195)"
         id="g1421">
        <ellipse
           style="fill:#000000;fill-opacity:1;stroke:#000000;stroke-width:6.26111;stroke-linecap:round;stroke-miterlimit:4;stroke-dasharray:none;stroke-opacity:1"
           id="path991-0"
           cx="153.71622"
           cy="-0.97579753"
           rx="2.657424"
           ry="2.7170556" />
        <ellipse
           style="fill:#000000;fill-opacity:1;stroke:#000000;stroke-width:6.26111;stroke-linecap:round;stroke-miterlimit:4;stroke-dasharray:none;stroke-opacity:1"
           id="path991-2"
           cx="158.28983"
           cy="-35.135311"
           rx="2.657424"
           ry="2.7170556" />
        <path
           style="fill:none;stroke:#000000;stroke-width:3.965;stroke-linecap:round;stroke-linejoin:miter;stroke-miterlimit:4;stroke-dasharray:none;stroke-opacity:1"
           d="m 166.68752,-8.5937212 -3.96875,9.26041668"
           id="path989-7-1-3"
           inkscape:connector-curvature="0"
           sodipodi:nodetypes="cc" />
        <path
           style="fill:none;stroke:#000000;stroke-width:3.965;stroke-linecap:round;stroke-linejoin:miter;stroke-miterlimit:4;stroke-dasharray:none;stroke-opacity:1"
           d="M 162.71877,0.66669548 158.75002,-20.499971"
           id="path989-7-1-7"
           inkscape:connector-curvature="0"
           sodipodi:nodetypes="cc" />
        <path
           style="fill:none;stroke:#000000;stroke-width:3.965;stroke-linecap:round;stroke-linejoin:miter;stroke-miterlimit:4;stroke-dasharray:none;stroke-opacity:1"
           d="m 169.33335,-17.854137 -2.64583,9.2604158"
           id="path989-7-1-5"
           inkscape:connector-curvature="0"
           sodipodi:nodetypes="cc" />
        <path
           style="fill:none;stroke:#000000;stroke-width:3.965;stroke-linecap:round;stroke-linejoin:miter;stroke-miterlimit:4;stroke-dasharray:none;stroke-opacity:1"
           d="m 178.59377,1.9896122 -15.875,-1.32291672"
           id="path989-7-1-9"
           inkscape:connector-curvature="0"
           sodipodi:nodetypes="cc" />
        <path
           style="fill:none;stroke:#000000;stroke-width:3.965;stroke-linecap:round;stroke-linejoin:miter;stroke-miterlimit:4;stroke-dasharray:none;stroke-opacity:1"
           d="M 185.20835,-8.5937212 178.59377,1.9896122"
           id="path989-7-1-2"
           inkscape:connector-curvature="0"
           sodipodi:nodetypes="cc" />
        <path
           style="fill:none;stroke:#000000;stroke-width:3.965;stroke-linecap:round;stroke-linejoin:miter;stroke-miterlimit:4;stroke-dasharray:none;stroke-opacity:1"
           d="m 197.1146,-19.177054 -10.58333,9.2604162"
           id="path989-7-1-36"
           inkscape:connector-curvature="0"
           sodipodi:nodetypes="cc" />
        <path
           style="fill:none;stroke:#000000;stroke-width:3.965;stroke-linecap:round;stroke-linejoin:miter;stroke-miterlimit:4;stroke-dasharray:none;stroke-opacity:1"
           d="m 178.59377,1.9896122 11.90625,-3.96875"
           id="path989-7-1-1"
           inkscape:connector-curvature="0"
           sodipodi:nodetypes="cc" />
        <path
           style="fill:none;stroke:#000000;stroke-width:3.965;stroke-linecap:round;stroke-linejoin:miter;stroke-miterlimit:4;stroke-dasharray:none;stroke-opacity:1"
           d="M 207.69793,4.6354455 190.50002,-1.9791378"
           id="path989-7-1-29"
           inkscape:connector-curvature="0"
           sodipodi:nodetypes="cc" />
        <path
           style="fill:none;stroke:#000000;stroke-width:3.965;stroke-linecap:round;stroke-linejoin:miter;stroke-miterlimit:4;stroke-dasharray:none;stroke-opacity:1"
           d="m 191.82293,-9.9166378 14.55209,9.26041658"
           id="path989-7-1-31"
           inkscape:connector-curvature="0"
           sodipodi:nodetypes="cc" />
        <path
           style="fill:none;stroke:#000000;stroke-width:3.965;stroke-linecap:round;stroke-linejoin:miter;stroke-miterlimit:4;stroke-dasharray:none;stroke-opacity:1"
           d="m 182.56252,-20.499971 9.26041,10.5833332"
           id="path989-7-1-94"
           inkscape:connector-curvature="0"
           sodipodi:nodetypes="cc" />
        <path
           style="fill:none;stroke:#000000;stroke-width:3.965;stroke-linecap:round;stroke-linejoin:miter;stroke-miterlimit:4;stroke-dasharray:none;stroke-opacity:1"
           d="m 182.56252,-19.177054 -5.29167,7.937499"
           id="path989-7-1-78"
           inkscape:connector-curvature="0"
           sodipodi:nodetypes="cc" />
        <path
           style="fill:none;stroke:#000000;stroke-width:3.965;stroke-linecap:round;stroke-linejoin:miter;stroke-miterlimit:4;stroke-dasharray:none;stroke-opacity:1"
           d="M 177.27085,-11.239555 173.3021,-0.65622122"
           id="path989-7-1-4"
           inkscape:connector-curvature="0"
           sodipodi:nodetypes="cc" />
        <path
           style="fill:none;stroke:#000000;stroke-width:3.965;stroke-linecap:round;stroke-linejoin:miter;stroke-miterlimit:4;stroke-dasharray:none;stroke-opacity:1"
           d="m 169.33335,-29.760387 13.22917,9.260416"
           id="path989-7-1-50"
           inkscape:connector-curvature="0"
           sodipodi:nodetypes="cc" />
        <path
           style="fill:none;stroke:#000000;stroke-width:3.965;stroke-linecap:round;stroke-linejoin:miter;stroke-miterlimit:4;stroke-dasharray:none;stroke-opacity:1"
           d="m 179.91668,-42.989554 -11.90625,11.90625"
           id="path989-7-1-361"
           inkscape:connector-curvature="0"
           sodipodi:nodetypes="cc" />
        <path
           style="fill:none;stroke:#000000;stroke-width:3.965;stroke-linecap:round;stroke-linejoin:miter;stroke-miterlimit:4;stroke-dasharray:none;stroke-opacity:1"
           d="m 179.91668,-42.989554 2.64584,9.260417"
           id="path989-7-1-0"
           inkscape:connector-curvature="0"
           sodipodi:nodetypes="cc" />
        <path
           style="fill:none;stroke:#000000;stroke-width:3.965;stroke-linecap:round;stroke-linejoin:miter;stroke-miterlimit:4;stroke-dasharray:none;stroke-opacity:1"
           d="m 168.01043,-29.760387 -2.64583,10.583333"
           id="path989-7-1-6"
           inkscape:connector-curvature="0"
           sodipodi:nodetypes="cc" />
        <path
           style="fill:none;stroke:#000000;stroke-width:3.965;stroke-linecap:round;stroke-linejoin:miter;stroke-miterlimit:4;stroke-dasharray:none;stroke-opacity:1"
           d="m 165.3646,-19.177054 -10.58333,6.614583"
           id="path989-7-1-32"
           inkscape:connector-curvature="0"
           sodipodi:nodetypes="cc" />
      </g>
      <g
         transform="matrix(0.43084064,0,0,0.42643737,-165.90406,83.300322)"
         id="g1443">
        <path
           style="fill:none;stroke:#000000;stroke-width:3.965;stroke-linecap:round;stroke-linejoin:miter;stroke-miterlimit:4;stroke-dasharray:none;stroke-opacity:1"
           d="m 244.7396,76.072945 -1.32291,15.875"
           id="path989-7-18"
           inkscape:connector-curvature="0"
           sodipodi:nodetypes="cc" />
        <path
           style="fill:none;stroke:#000000;stroke-width:3.965;stroke-linecap:round;stroke-linejoin:miter;stroke-miterlimit:4;stroke-dasharray:none;stroke-opacity:1"
           d="m 205.0521,29.770862 14.55207,9.260407"
           id="path989"
           inkscape:connector-curvature="0"
           sodipodi:nodetypes="cc" />
        <ellipse
           style="fill:#000000;fill-opacity:1;stroke:#000000;stroke-width:6.26111;stroke-linecap:round;stroke-miterlimit:4;stroke-dasharray:none;stroke-opacity:1"
           id="path991"
           cx="240.89445"
           cy="43.040379"
           rx="2.657424"
           ry="2.7170556" />
        <ellipse
           style="fill:#000000;fill-opacity:1;stroke:#000000;stroke-width:6.26111;stroke-linecap:round;stroke-miterlimit:4;stroke-dasharray:none;stroke-opacity:1"
           id="path991-3"
           cx="215.76131"
           cy="76.68187"
           rx="2.657424"
           ry="2.7170556" />
        <path
           style="fill:none;stroke:#000000;stroke-width:3.965;stroke-linecap:round;stroke-linejoin:miter;stroke-miterlimit:4;stroke-dasharray:none;stroke-opacity:1"
           d="m 212.9896,52.260445 6.61459,-13.229166"
           id="path989-6"
           inkscape:connector-curvature="0"
           sodipodi:nodetypes="cc" />
        <path
           style="fill:none;stroke:#000000;stroke-width:3.965;stroke-linecap:round;stroke-linejoin:miter;stroke-miterlimit:4;stroke-dasharray:none;stroke-opacity:1"
           d="M 212.9896,52.260445 V 66.812529"
           id="path989-7"
           inkscape:connector-curvature="0"
           sodipodi:nodetypes="cc" />
        <path
           style="fill:none;stroke:#000000;stroke-width:3.965;stroke-linecap:round;stroke-linejoin:miter;stroke-miterlimit:4;stroke-dasharray:none;stroke-opacity:1"
           d="m 202.40627,60.197945 10.58333,6.614584"
           id="path989-7-5"
           inkscape:connector-curvature="0"
           sodipodi:nodetypes="cc" />
        <path
           style="fill:none;stroke:#000000;stroke-width:3.965;stroke-linecap:round;stroke-linejoin:miter;stroke-miterlimit:4;stroke-dasharray:none;stroke-opacity:1"
           d="m 202.40627,60.197945 -3.96875,-11.90625"
           id="path989-7-3"
           inkscape:connector-curvature="0"
           sodipodi:nodetypes="cc" />
        <path
           style="fill:none;stroke:#000000;stroke-width:3.965;stroke-linecap:round;stroke-linejoin:miter;stroke-miterlimit:4;stroke-dasharray:none;stroke-opacity:1"
           d="m 212.9896,66.812529 11.90625,-1.322917"
           id="path989-7-56"
           inkscape:connector-curvature="0"
           sodipodi:nodetypes="cc" />
        <path
           style="fill:none;stroke:#000000;stroke-width:3.965;stroke-linecap:round;stroke-linejoin:miter;stroke-miterlimit:4;stroke-dasharray:none;stroke-opacity:1"
           d="m 224.89585,65.489612 11.90625,5.291667"
           id="path989-7-2"
           inkscape:connector-curvature="0"
           sodipodi:nodetypes="cc" />
        <path
           style="fill:none;stroke:#000000;stroke-width:3.965;stroke-linecap:round;stroke-linejoin:miter;stroke-miterlimit:4;stroke-dasharray:none;stroke-opacity:1"
           d="m 212.9896,52.260445 13.22917,-1.322916"
           id="path989-7-9"
           inkscape:connector-curvature="0"
           sodipodi:nodetypes="cc" />
        <path
           style="fill:none;stroke:#000000;stroke-width:3.965;stroke-linecap:round;stroke-linejoin:miter;stroke-miterlimit:4;stroke-dasharray:none;stroke-opacity:1"
           d="m 228.8646,33.739612 -2.64583,17.197917"
           id="path989-7-1"
           inkscape:connector-curvature="0"
           sodipodi:nodetypes="cc" />
        <path
           style="fill:none;stroke:#000000;stroke-width:3.965;stroke-linecap:round;stroke-linejoin:miter;stroke-miterlimit:4;stroke-dasharray:none;stroke-opacity:1"
           d="M 248.70835,50.937529 244.7396,65.489612"
           id="path989-7-27"
           inkscape:connector-curvature="0"
           sodipodi:nodetypes="cc" />
        <path
           style="fill:none;stroke:#000000;stroke-width:3.965;stroke-linecap:round;stroke-linejoin:miter;stroke-miterlimit:4;stroke-dasharray:none;stroke-opacity:1"
           d="m 244.7396,65.489612 -10.58333,7.9375"
           id="path989-7-0"
           inkscape:connector-curvature="0"
           sodipodi:nodetypes="cc" />
        <path
           style="fill:none;stroke:#000000;stroke-width:3.965;stroke-linecap:round;stroke-linejoin:miter;stroke-miterlimit:4;stroke-dasharray:none;stroke-opacity:1"
           d="m 234.15627,65.489612 5.29167,-3.96875"
           id="path989-7-93"
           inkscape:connector-curvature="0"
           sodipodi:nodetypes="cc" />
        <path
           style="fill:none;stroke:#000000;stroke-width:3.965;stroke-linecap:round;stroke-linejoin:miter;stroke-miterlimit:4;stroke-dasharray:none;stroke-opacity:1"
           d="m 248.70835,50.937529 -7.9375,9.260416"
           id="path989-7-6"
           inkscape:connector-curvature="0"
           sodipodi:nodetypes="cc" />
        <path
           style="fill:none;stroke:#000000;stroke-width:3.965;stroke-linecap:round;stroke-linejoin:miter;stroke-miterlimit:4;stroke-dasharray:none;stroke-opacity:1"
           d="m 248.70835,50.937529 9.26042,13.229166"
           id="path989-7-06"
           inkscape:connector-curvature="0"
           sodipodi:nodetypes="cc" />
        <path
           style="fill:none;stroke:#000000;stroke-width:3.965;stroke-linecap:round;stroke-linejoin:miter;stroke-miterlimit:4;stroke-dasharray:none;stroke-opacity:1"
           d="m 244.7396,76.072945 13.22917,-11.90625"
           id="path989-7-26"
           inkscape:connector-curvature="0"
           sodipodi:nodetypes="cc" />
        <path
           style="fill:none;stroke:#000000;stroke-width:3.965;stroke-linecap:round;stroke-linejoin:miter;stroke-miterlimit:4;stroke-dasharray:none;stroke-opacity:1"
           d="m 257.96877,65.489612 -3.96875,11.90625"
           id="path989-7-7"
           inkscape:connector-curvature="0"
           sodipodi:nodetypes="cc" />
        <path
           style="fill:none;stroke:#000000;stroke-width:3.965;stroke-linecap:round;stroke-linejoin:miter;stroke-miterlimit:4;stroke-dasharray:none;stroke-opacity:1"
           d="m 254.00002,78.718779 5.29167,13.229166"
           id="path989-7-92"
           inkscape:connector-curvature="0"
           sodipodi:nodetypes="cc" />
      </g>
      <g
         transform="matrix(0.5,0,0,0.5,-178.62182,74.825706)"
         id="g1531">
        <path
           transform="translate(-1.0208333e-5)"
           style="fill:none;stroke:#000000;stroke-width:3.965;stroke-linecap:round;stroke-linejoin:miter;stroke-miterlimit:4;stroke-dasharray:none;stroke-opacity:1"
           d="m 76.729187,-143.53122 5.291666,-11.90625"
           id="path989-7-1-06"
           inkscape:connector-curvature="0"
           sodipodi:nodetypes="cc" />
        <ellipse
           transform="translate(-1.0208333e-5)"
           ry="2.7170556"
           rx="2.657424"
           cy="-182.32809"
           cx="82.306381"
           id="path991-2-1"
           style="fill:#000000;fill-opacity:1;stroke:#000000;stroke-width:6.26111;stroke-linecap:round;stroke-miterlimit:4;stroke-dasharray:none;stroke-opacity:1" />
        <path
           transform="translate(-1.0208333e-5)"
           style="fill:none;stroke:#000000;stroke-width:3.965;stroke-linecap:round;stroke-linejoin:miter;stroke-miterlimit:4;stroke-dasharray:none;stroke-opacity:1"
           d="m 66.145853,-135.59372 10.583334,-7.9375"
           id="path989-7-1-06-5"
           inkscape:connector-curvature="0"
           sodipodi:nodetypes="cc" />
        <path
           transform="translate(-1.0208333e-5)"
           style="fill:none;stroke:#000000;stroke-width:3.965;stroke-linecap:round;stroke-linejoin:miter;stroke-miterlimit:4;stroke-dasharray:none;stroke-opacity:1"
           d="m 83.34377,-155.43747 10.583333,7.9375"
           id="path989-7-1-06-54"
           inkscape:connector-curvature="0"
           sodipodi:nodetypes="cc" />
        <path
           transform="translate(-1.0208333e-5)"
           style="fill:none;stroke:#000000;stroke-width:3.965;stroke-linecap:round;stroke-linejoin:miter;stroke-miterlimit:4;stroke-dasharray:none;stroke-opacity:1"
           d="m 93.927103,-147.49997 6.614587,14.55208"
           id="path989-7-1-06-7"
           inkscape:connector-curvature="0"
           sodipodi:nodetypes="cc" />
        <path
           style="fill:none;stroke:#000000;stroke-width:3.965;stroke-linecap:round;stroke-linejoin:miter;stroke-miterlimit:4;stroke-dasharray:none;stroke-opacity:1"
           d="m 82.020853,-171.31247 v 15.875"
           id="path989-7-1-06-6"
           inkscape:connector-curvature="0"
           sodipodi:nodetypes="cc" />
        <path
           style="fill:none;stroke:#000000;stroke-width:3.965;stroke-linecap:round;stroke-linejoin:miter;stroke-miterlimit:4;stroke-dasharray:none;stroke-opacity:1"
           d="m 104.51044,-169.98955 -22.489587,-1.32292"
           id="path989-7-1-06-56"
           inkscape:connector-curvature="0"
           sodipodi:nodetypes="cc" />
        <path
           style="fill:none;stroke:#000000;stroke-width:3.965;stroke-linecap:round;stroke-linejoin:miter;stroke-miterlimit:4;stroke-dasharray:none;stroke-opacity:1"
           d="m 82.020853,-171.31247 -10.583333,7.9375"
           id="path989-7-1-06-9"
           inkscape:connector-curvature="0"
           sodipodi:nodetypes="cc" />
        <path
           style="fill:none;stroke:#000000;stroke-width:3.965;stroke-linecap:round;stroke-linejoin:miter;stroke-miterlimit:4;stroke-dasharray:none;stroke-opacity:1"
           d="m 71.43752,-163.37497 3.96875,5.29167"
           id="path989-7-1-06-3"
           inkscape:connector-curvature="0"
           sodipodi:nodetypes="cc" />
      </g>
      <path
         id="rect2425"
         style="display:inline;fill:#000000;stroke-width:13.7198;stroke-linejoin:round;stroke-miterlimit:4;stroke-dasharray:none"
         d="m 258.24805,179.57617 c -4.95258,0.10644 -9.71892,2.72689 -12.38672,7.34766 L 136.41211,376.49219 c -4.06523,7.04117 -1.66813,15.9836 5.37305,20.04883 7.04117,4.06522 15.98165,1.66813 20.04687,-5.37305 L 271.2793,201.59961 c 4.06522,-7.04118 1.67008,-15.98165 -5.3711,-20.04688 -2.4204,-1.39742 -5.06594,-2.03231 -7.66015,-1.97656 z m -25.07032,45.08789 1.48829,0.85938 -2.59766,4.5 11.10547,6.41015 -0.9668,1.67383 -11.10547,-6.41015 -2.59765,4.5 -1.48829,-0.85938 z m -6.83984,11.84766 1.28516,0.74219 -0.95313,1.65039 10.02344,5.78515 0.95117,-1.64843 1.28516,0.74218 -2.8711,4.97266 -1.28515,-0.74219 0.95312,-1.64844 -10.02344,-5.78711 -0.95117,1.6504 -1.28515,-0.74219 z m -4.10156,7.10547 1.48828,0.85937 -3.82422,6.6211 3.45117,1.99218 3.82227,-6.62109 1.49023,0.85937 -3.82422,6.6211 4.67774,2.70117 3.82226,-6.62305 1.48828,0.85938 -4.78906,8.29687 -12.59375,-7.26953 z m -6.03125,10.44336 2.67383,9.04297 10.07031,-2.03321 -1.25391,2.17383 -8.48437,1.74414 0.61523,2.02149 4.26953,2.46679 -0.96679,1.67383 -12.5918,-7.26953 0.9668,-1.67578 6.57031,3.79492 -3.04102,-9.9082 z m -7.65039,13.2539 12.59179,7.26953 -0.96679,1.67579 -6.16407,-3.56055 -3.6289,6.2832 6.16601,3.56055 -0.96679,1.67383 -12.59375,-7.26953 0.96679,-1.67579 4.93946,2.85157 3.62695,-6.28321 -4.9375,-2.85156 z m -6.0586,12.52539 1.98633,1.14649 -0.0723,0.12695 c -0.98112,0.35821 -1.80207,0.80281 -2.46094,1.33203 -0.65887,0.52922 -1.21288,1.18286 -1.66211,1.96094 -0.36782,0.63711 -0.59598,1.27273 -0.68359,1.90625 -0.09,0.62459 -0.0329,1.26308 0.16992,1.91406 0.1983,0.6332 0.55868,1.24561 1.08008,1.83985 0.51905,0.58538 1.20116,1.12305 2.04687,1.61132 0.88522,0.51107 1.71446,0.83186 2.48828,0.96289 0.77707,0.12541 1.47532,0.11533 2.09375,-0.0312 0.64509,-0.15378 1.22086,-0.43463 1.72656,-0.8418 0.50326,-0.41611 0.92318,-0.91753 1.26172,-1.50391 0.46549,-0.80627 0.76391,-1.64159 0.89453,-2.50586 0.13052,-0.86428 0.096,-1.76369 -0.10156,-2.69726 l 0.0684,-0.11719 1.96289,1.13086 c -0.0438,0.38821 -0.0794,0.74432 -0.10742,1.0664 -0.0252,0.3165 -0.091,0.71456 -0.19531,1.19532 -0.0915,0.4058 -0.21592,0.83298 -0.37696,1.28125 -0.15218,0.44591 -0.36855,0.9116 -0.64843,1.39648 -0.52735,0.91339 -1.1356,1.67199 -1.82227,2.27539 -0.68906,0.59451 -1.46614,1.00932 -2.33203,1.2461 -0.84813,0.23203 -1.77058,0.2626 -2.76953,0.0918 -1.0046,-0.17403 -2.05464,-0.57551 -3.14844,-1.20703 -1.03743,-0.59895 -1.88101,-1.28167 -2.5293,-2.04687 -0.64823,-0.76519 -1.09305,-1.58678 -1.33789,-2.46485 -0.2376,-0.8514 -0.28342,-1.73863 -0.13476,-2.66015 0.15194,-0.92717 0.49547,-1.85268 1.0293,-2.77735 0.39062,-0.67658 0.8613,-1.30233 1.4121,-1.8789 0.55406,-0.58223 1.27518,-1.16645 2.16211,-1.75196 z m -8.15039,12.08399 1.28516,0.74219 -0.95313,1.65039 10.02344,5.78515 0.95117,-1.64844 1.28516,0.74219 -2.87109,4.97266 -1.28516,-0.74219 0.95313,-1.64844 -10.02344,-5.78711 -0.95117,1.65039 -1.28516,-0.74218 z m -7.16406,12.4082 11.10547,6.41016 3.63281,-6.29102 1.48828,0.85938 -4.59961,7.96679 -12.59375,-7.27148 z m -1.61133,6.87305 c 0.58389,-0.009 1.2119,0.18089 1.88281,0.56836 0.90777,0.52409 1.53583,1.19044 1.88672,2.00195 0.34525,0.80826 0.44326,1.70199 0.29102,2.68164 l 8.24023,-1.55664 -1.25586,2.17383 -7.4375,1.32031 -1.36328,2.35938 5.00782,2.89062 -0.9668,1.67578 -12.59375,-7.27148 2.03711,-3.52539 c 0.43946,-0.76117 0.85557,-1.36756 1.25,-1.81641 0.38876,-0.45214 0.82827,-0.80698 1.3164,-1.06641 0.55124,-0.29067 1.11883,-0.43574 1.70508,-0.43554 z m -0.34375,2.02148 c -0.26653,0.0124 -0.53587,0.0857 -0.80664,0.22266 -0.30342,0.14808 -0.5818,0.37117 -0.83594,0.66797 -0.25972,0.29361 -0.51888,0.66614 -0.77929,1.11719 l -1.13867,1.9707 4.7539,2.74414 0.97656,-1.69141 c 0.30599,-0.52999 0.52827,-1.01813 0.66602,-1.46484 0.13203,-0.44999 0.15088,-0.88779 0.0566,-1.31055 -0.0905,-0.39043 -0.25427,-0.73118 -0.49023,-1.02539 -0.23862,-0.30298 -0.59484,-0.5918 -1.06836,-0.86523 -0.36087,-0.20836 -0.71729,-0.32757 -1.06836,-0.35742 -0.0884,-0.01 -0.17678,-0.012 -0.26563,-0.008 z m -7.92187,8.21485 12.59179,7.26953 -0.96679,1.67578 -6.16407,-3.56055 -3.6289,6.28321 6.16601,3.56054 -0.96679,1.67383 -12.59375,-7.26953 0.96679,-1.67578 4.93946,2.85156 3.62695,-6.2832 -4.9375,-2.85157 z m -7.09961,12.29687 1.48828,0.85938 -3.82422,6.62109 3.45117,1.99219 3.82227,-6.6211 1.49023,0.85938 -3.82422,6.62109 4.67774,2.70117 3.82226,-6.62304 1.48829,0.85937 -4.78907,8.29688 -12.59375,-7.27149 z"
         transform="matrix(0.26458333,0,0,0.26458333,-231.33133,-28.238795)" />
      <path
         id="rect2423"
         style="display:inline;fill:#000000;stroke-width:13.7198;stroke-linejoin:round;stroke-miterlimit:4;stroke-dasharray:none"
         d="m 460.625,181.13281 c -2.59421,-0.0558 -5.23975,0.57914 -7.66016,1.97657 -7.04117,4.06522 -9.43632,13.00569 -5.37109,20.04687 l 109.44727,189.56836 c 4.06522,7.04118 13.00569,9.43827 20.04687,5.37305 7.04118,-4.06523 9.43632,-13.00765 5.37109,-20.04883 L 473.01172,188.48047 c -2.66781,-4.62077 -7.43414,-7.24122 -12.38672,-7.34766 z m 20.94727,37.03516 4.64453,8.04297 -1.48828,0.85937 -3.67774,-6.36719 -3.55078,2.05079 3.1582,5.4707 -1.48828,0.85937 -3.16015,-5.4707 -6.0625,3.5 -0.9668,-1.67383 z m 5.74218,9.94726 2.03711,3.52539 c 0.43946,0.76116 0.75382,1.42617 0.94532,1.99219 0.19729,0.56275 0.28723,1.11941 0.26757,1.67188 -0.0227,0.6227 -0.18208,1.18768 -0.47656,1.69531 -0.2844,0.51 -0.7607,0.95833 -1.43164,1.3457 -0.90774,0.52409 -1.80145,0.73664 -2.67969,0.63477 -0.87259,-0.10512 -1.69446,-0.46824 -2.46679,-1.08985 l -2.77149,7.91407 -1.25586,-2.17383 2.57617,-7.10156 -1.36328,-2.35938 -5.00586,2.89063 -0.96679,-1.67578 z m -0.4707,2.50391 -4.75195,2.74414 0.97656,1.69141 c 0.30599,0.52999 0.61756,0.96595 0.93555,1.30859 0.32365,0.33937 0.69216,0.57533 1.10547,0.70508 0.38326,0.11701 0.76192,0.14529 1.13476,0.0879 0.38171,-0.055 0.80765,-0.21875 1.28125,-0.49219 0.36082,-0.20833 0.64233,-0.4569 0.84375,-0.74609 0.21039,-0.28679 0.32718,-0.63129 0.34961,-1.03516 0.0227,-0.3368 -0.0309,-0.69009 -0.16016,-1.05859 -0.12447,-0.37171 -0.31581,-0.78332 -0.57617,-1.23438 z m 7.42383,9.53906 4.79101,8.29688 -1.48828,0.85937 -3.82422,-6.62304 -3.44921,1.99218 3.82226,6.62305 -1.48828,0.85938 -3.82422,-6.62305 -4.67578,2.70117 3.82226,6.62109 -1.48828,0.85938 -4.78906,-8.29688 z m 6.2207,10.77344 0.9668,1.67578 -7.61914,4.39844 c -0.68221,0.39388 -1.19451,0.75028 -1.53711,1.06836 -0.33933,0.32369 -0.60636,0.6883 -0.80078,1.09375 -0.22325,0.45967 -0.306,0.95408 -0.24805,1.48437 0.0612,0.53597 0.26428,1.10353 0.60938,1.70118 0.34829,0.60328 0.73553,1.06414 1.16015,1.38281 0.43026,0.3154 0.90333,0.49233 1.42188,0.53125 0.44832,0.0343 0.90546,-0.0225 1.36914,-0.16992 0.47255,-0.14504 1.01628,-0.39517 1.63086,-0.75 l 7.66211,-4.42383 0.96679,1.67578 -7.53515,4.34961 c -0.91339,0.52734 -1.77092,0.88723 -2.57032,1.07812 -0.79052,0.19331 -1.5431,0.19048 -2.25781,-0.006 -0.67915,-0.18673 -1.28377,-0.51171 -1.81641,-0.97851 -0.53256,-0.46685 -1.02279,-1.08695 -1.46874,-1.85938 -0.45574,-0.78935 -0.749,-1.53732 -0.87891,-2.24414 -0.13002,-0.70681 -0.10651,-1.37898 0.0684,-2.01367 0.19855,-0.72362 0.56657,-1.3745 1.10351,-1.95508 0.54012,-0.57494 1.28547,-1.13737 2.23828,-1.6875 z m 7.43164,12.87305 1.5,2.5957 -7.14062,11.38477 10.28515,-5.9375 0.90235,1.56445 -12.5918,7.26953 -1.19727,-2.07226 7.81836,-12.47461 -11.26562,6.5039 -0.90235,-1.56445 z m 7.48047,12.95703 1.81641,3.14453 c 0.70963,1.22913 1.18371,2.25811 1.41992,3.08398 0.24514,0.82825 0.35632,1.58284 0.33594,2.26368 -0.0408,1.16624 -0.36826,2.2447 -0.98243,3.23828 -0.61413,0.99356 -1.53237,1.8444 -2.75585,2.55078 -1.14457,0.66081 -2.32687,1.00961 -3.54688,1.04492 -1.21676,0.041 -2.3209,-0.2057 -3.3125,-0.73828 -0.68724,-0.37002 -1.31478,-0.86511 -1.88281,-1.48438 -0.56467,-0.61368 -1.18034,-1.49847 -1.84766,-2.65429 l -1.83594,-3.17969 z m -0.46875,2.5039 -9.71875,5.60938 0.9082,1.57422 c 0.4655,0.80626 0.931,1.47271 1.39453,2.00195 0.4668,0.53488 1.00618,0.96105 1.61719,1.27735 0.76164,0.39472 1.55757,0.55773 2.39063,0.49023 0.83631,-0.0619 1.74551,-0.37499 2.72656,-0.94141 0.98669,-0.56966 1.71925,-1.22247 2.19727,-1.95703 0.47801,-0.73455 0.71383,-1.55411 0.70898,-2.46093 -0.005,-0.65893 -0.11492,-1.2999 -0.33008,-1.91993 -0.20946,-0.62331 -0.53712,-1.32349 -0.98633,-2.10156 z m 6.16211,11.82813 c 0.5599,-0.0263 1.13589,0.0862 1.72852,0.33789 1.1909,0.50021 2.18163,1.43461 2.97265,2.80469 0.51107,0.88519 0.89503,1.74579 1.15235,2.58203 0.25732,0.83624 0.42714,1.61152 0.50781,2.32422 l -1.97852,1.14258 -0.0684,-0.11914 c 0.12926,-0.71363 0.0996,-1.53791 -0.0879,-2.47461 -0.17859,-0.93432 -0.50455,-1.80942 -0.97656,-2.62696 -0.51758,-0.89647 -1.11877,-1.51169 -1.80664,-1.84375 -0.68464,-0.32641 -1.32185,-0.32093 -1.9082,0.0176 -0.52437,0.30274 -0.85744,0.67599 -1,1.11914 -0.14257,0.44316 -0.0954,1.05085 0.14062,1.82422 0.12934,0.40645 0.33026,0.97659 0.60156,1.70703 0.2713,0.73044 0.48034,1.35996 0.62891,1.89063 0.29228,1.07917 0.32406,2.00035 0.0957,2.76367 -0.22836,0.76332 -0.7932,1.40495 -1.69531,1.92578 -0.49052,0.2832 -1.04157,0.44861 -1.6543,0.49414 -0.60944,0.0512 -1.19923,-0.0324 -1.76953,-0.25195 -0.62125,-0.24272 -1.20848,-0.60765 -1.75976,-1.09375 -0.54799,-0.48048 -1.06641,-1.14451 -1.55469,-1.99024 -0.52409,-0.90775 -0.9113,-1.77269 -1.16211,-2.59765 -0.24756,-0.81933 -0.42123,-1.70062 -0.52148,-2.64258 l 2.09765,-1.21094 0.0684,0.11914 c -0.16214,0.94311 -0.14536,1.91359 0.0488,2.91406 0.19424,1.00047 0.50261,1.86665 0.92578,2.59961 0.59896,1.03743 1.25941,1.73154 1.98047,2.08203 0.72433,0.35612 1.41022,0.34692 2.05859,-0.0273 0.55819,-0.32227 0.88865,-0.69769 0.99414,-1.12695 0.10875,-0.42363 0.0761,-0.95679 -0.0996,-1.59961 -0.13132,-0.488 -0.30248,-1.00057 -0.51562,-1.53906 -0.20989,-0.53286 -0.41881,-1.10889 -0.625,-1.72657 -0.40773,-1.25308 -0.48352,-2.31354 -0.22656,-3.18359 0.26585,-0.86766 0.85832,-1.56706 1.77734,-2.09766 0.52718,-0.30436 1.07096,-0.46977 1.63086,-0.49609 z m 6.61133,12.51172 c 0.4674,0.012 0.92187,0.074 1.36328,0.1875 0.85615,0.21987 1.64538,0.62534 2.36914,1.21484 0.72699,0.59515 1.35872,1.35464 1.89258,2.2793 0.39062,0.67658 0.69794,1.3968 0.92187,2.16211 0.22718,0.77094 0.37193,1.6872 0.43555,2.74805 l -1.98828,1.14843 -0.0723,-0.12695 c 0.18036,-1.02879 0.20506,-1.96166 0.0762,-2.79687 -0.12888,-0.83522 -0.41796,-1.64186 -0.86718,-2.41993 -0.36784,-0.63711 -0.80376,-1.15228 -1.3086,-1.54492 -0.4959,-0.39027 -1.07687,-0.65897 -1.74218,-0.80859 -0.64746,-0.14491 -1.35747,-0.14081 -2.13282,0.0137 -0.76646,0.15685 -1.57224,0.47852 -2.41796,0.9668 -0.8852,0.51106 -1.57969,1.06919 -2.08008,1.67382 -0.49716,0.61029 -0.83537,1.22121 -1.01758,1.83008 -0.18936,0.63556 -0.23452,1.27252 -0.13477,1.91407 0.10873,0.64388 0.33138,1.25933 0.66993,1.8457 0.46549,0.80626 1.03949,1.48206 1.72265,2.02734 0.68318,0.54527 1.47935,0.96618 2.38672,1.26172 l 0.0684,0.11914 -1.96289,1.13281 c -0.31433,-0.23198 -0.60228,-0.4416 -0.86719,-0.62695 -0.26172,-0.17968 -0.57548,-0.43451 -0.93945,-0.76562 -0.30571,-0.28208 -0.61223,-0.60514 -0.91992,-0.96875 -0.31012,-0.35471 -0.60482,-0.77489 -0.88477,-1.25977 -0.52734,-0.91339 -0.88134,-1.81847 -1.06055,-2.71484 -0.17035,-0.89398 -0.14196,-1.77429 0.0859,-2.64258 0.22314,-0.85052 0.65927,-1.6656 1.30664,-2.44531 0.65305,-0.78299 1.52534,-1.49154 2.61914,-2.12305 1.03742,-0.59896 2.05029,-0.98719 3.03711,-1.16602 0.4934,-0.0894 0.974,-0.12728 1.44141,-0.11523 z m 9.23828,10.46875 0.9668,1.67383 -4.9375,2.85156 3.62695,6.28516 4.93945,-2.85157 0.9668,1.67383 -12.59375,7.27149 -0.9668,-1.67579 6.16602,-3.55859 -3.62891,-6.28516 -6.16406,3.56055 -0.9668,-1.67383 z m 9.31641,16.13672 1.28906,2.23242 -9.94531,11.85547 -1.03125,-1.78516 2.79687,-3.26172 -3.14453,-5.44531 -4.22266,0.79102 -0.98047,-1.69922 z m -0.8418,1.91797 -7.46289,1.35351 2.55469,4.42383 z m 5.88086,6.81054 4.64453,8.04297 -1.48828,0.85938 -3.67774,-6.36914 -3.55078,2.05078 3.15821,5.47265 -1.48829,0.85938 -3.16015,-5.47266 -6.0625,3.50196 -0.9668,-1.67579 z m 4.76562,8.25391 6.16211,10.67383 -1.48828,0.85937 -2.59766,-4.5 -11.10351,6.41016 -0.9668,-1.67383 11.10352,-6.41016 -2.59766,-4.5 z"
         transform="matrix(0.26458333,0,0,0.26458333,-231.33133,-28.238795)" />
      <path
         id="rect1485"
         style="display:inline;fill:#000000;stroke-width:13.7198;stroke-linejoin:round;stroke-miterlimit:4;stroke-dasharray:none"
         d="m 249.8418,508.47461 c -8.13045,0 -14.67578,6.54533 -14.67578,14.67578 0,8.13045 6.54533,14.67578 14.67578,14.67578 h 218.89453 c 8.13045,0 14.67578,-6.54533 14.67578,-14.67578 0,-8.13045 -6.54533,-14.67578 -14.67578,-14.67578 z m 97.97265,7.11719 c 1.02214,0 1.95964,0.0977 2.8125,0.29297 0.85287,0.19527 1.60807,0.43616 2.26563,0.72265 v 2.28516 h -0.13672 c -0.5534,-0.46876 -1.28256,-0.85612 -2.1875,-1.16211 -0.89844,-0.31249 -1.81967,-0.46875 -2.76367,-0.46875 -1.03516,0 -1.86849,0.21485 -2.5,0.64453 -0.62501,0.42968 -0.9375,0.98307 -0.9375,1.66016 0,0.60545 0.15623,1.08071 0.46875,1.42578 0.31249,0.34504 0.86263,0.60871 1.65039,0.79101 0.41668,0.0912 1.00912,0.20177 1.77734,0.33203 0.76823,0.13027 1.41928,0.26375 1.95313,0.40039 1.08074,0.28647 1.89453,0.71941 2.4414,1.29883 0.54688,0.57943 0.82032,1.38998 0.82032,2.43164 0,0.56643 -0.13346,1.12632 -0.4004,1.67969 -0.2604,0.5534 -0.62825,1.02215 -1.10351,1.40625 -0.52082,0.41668 -1.12956,0.74221 -1.82617,0.97656 -0.69012,0.23433 -1.52345,0.35157 -2.5,0.35157 -1.04819,0 -1.9922,-0.0977 -2.83203,-0.29297 -0.83334,-0.19528 -1.68294,-0.48499 -2.54883,-0.86914 v -2.42188 h 0.13672 c 0.73569,0.61198 1.5853,1.084 2.54882,1.41602 0.96356,0.33204 1.86849,0.49804 2.71485,0.49804 1.19791,0 2.1289,-0.22459 2.79297,-0.67382 0.67056,-0.44921 1.00586,-1.04818 1.00586,-1.79688 0,-0.64453 -0.1595,-1.11979 -0.47852,-1.42578 -0.31249,-0.30599 -0.79101,-0.54362 -1.43555,-0.71289 -0.48826,-0.13027 -1.01887,-0.2376 -1.59179,-0.32227 -0.5664,-0.0847 -1.16861,-0.19199 -1.80664,-0.32226 -1.28905,-0.27344 -2.24609,-0.73895 -2.8711,-1.39649 -0.61848,-0.66406 -0.92773,-1.52667 -0.92773,-2.58789 0,-1.21743 0.51433,-2.21353 1.54297,-2.98828 1.02863,-0.78125 2.33398,-1.17187 3.91601,-1.17187 z m -31.46484,0.26367 h 4.07227 c 0.87889,0 1.61131,0.0586 2.19726,0.17578 0.58593,0.11061 1.11327,0.31245 1.58203,0.60547 0.52735,0.33204 0.93751,0.75195 1.23047,1.25976 0.29949,0.5013 0.44922,1.13934 0.44922,1.91407 0,1.04819 -0.26367,1.92707 -0.79102,2.63672 -0.52734,0.70311 -1.25323,1.23372 -2.17773,1.59179 l 5.46875,6.35742 h -2.50977 l -4.86328,-5.78125 h -2.72461 v 5.78125 h -1.93359 z m 13.90625,0 h 9.58008 v 1.71875 h -7.64649 v 3.98437 h 7.64649 v 1.71875 h -7.64649 v 5.40039 h 7.64649 v 1.71875 h -9.58008 z m 26.32812,0 h 3.94532 c 0.87239,0 1.61131,0.0749 2.21679,0.22461 0.60546,0.14312 1.14257,0.37097 1.61133,0.68359 0.55338,0.3711 0.97981,0.83332 1.2793,1.38672 0.30599,0.55337 0.45898,1.25325 0.45898,2.09961 0,0.64454 -0.11401,1.2435 -0.34179,1.79688 -0.22148,0.54687 -0.53398,1.02212 -0.9375,1.42578 -0.50132,0.50129 -1.09376,0.8789 -1.77735,1.13281 -0.68359,0.24743 -1.54623,0.37109 -2.58789,0.37109 h -1.93359 v 5.41992 h -1.9336 z m 12.07032,0 h 9.58008 v 1.71875 h -7.64649 v 3.98437 h 7.64649 v 1.71875 h -7.64649 v 5.40039 h 7.64649 v 1.71875 h -9.58008 z m 12.70508,0 h 1.93359 v 7.58789 l 7.06055,-7.58789 h 2.34375 l -6.49415,6.83594 6.79688,7.70507 h -2.50977 l -5.75195,-6.4746 -1.44531,1.54296 v 4.93164 h -1.93359 z m 11.86523,0 h 12.32422 v 1.71875 h -5.19531 v 12.82226 h -1.9336 v -12.82226 h -5.19531 z m -74.94141,1.66015 v 5.48829 h 1.95313 c 0.61198,0 1.14585,-0.0519 1.60156,-0.15625 0.45574,-0.11062 0.84309,-0.31246 1.16211,-0.60547 0.29296,-0.27344 0.50781,-0.58593 0.64453,-0.9375 0.14312,-0.35807 0.21485,-0.81055 0.21485,-1.35742 0,-0.41668 -0.075,-0.78453 -0.22461,-1.10352 -0.14337,-0.32552 -0.38424,-0.59896 -0.72266,-0.82031 -0.27994,-0.18873 -0.61197,-0.31892 -0.99609,-0.39063 -0.38411,-0.0781 -0.83658,-0.11719 -1.35743,-0.11719 z m 40.23438,0 v 5.81055 h 1.63086 c 0.78125,0 1.416,-0.0683 1.90429,-0.20508 0.48827,-0.14311 0.88542,-0.36773 1.19141,-0.67382 0.30599,-0.31252 0.52082,-0.64129 0.64453,-0.98633 0.13027,-0.34505 0.19531,-0.73243 0.19531,-1.16211 0,-0.50132 -0.0878,-0.9375 -0.26367,-1.3086 -0.17587,-0.37107 -0.44281,-0.67382 -0.80078,-0.9082 -0.31252,-0.20183 -0.67056,-0.34505 -1.07422,-0.42969 -0.39713,-0.0912 -0.90169,-0.13672 -1.51367,-0.13672 z"
         transform="matrix(0.26458333,0,0,0.26458333,-231.33133,-28.238795)" />
    </g>
    <flowRoot
       xml:space="preserve"
       id="flowRoot1970"
       style="font-style:normal;font-weight:normal;font-size:40px;line-height:1.25;font-family:sans-serif;letter-spacing:0px;word-spacing:0px;fill:#000000;fill-opacity:1;stroke:none"
       transform="matrix(0.26458333,0,0,0.26458333,-434.56906,-365.86666)"><flowRegion
         id="flowRegion1972"><rect
           id="rect1974"
           width="1580"
           height="1360"
           x="662.46582"
           y="485.32291" /></flowRegion><flowPara
         id="flowPara1976" /></flowRoot>
  </g>
</svg>
