<?xml version="1.0" encoding="UTF-8" standalone="no"?>
<!-- Created with Inkscape (http://www.inkscape.org/) -->

<svg
   width="188.93694mm"
   height="185.31546mm"
   viewBox="0 0 188.93694 185.31546"
   version="1.1"
   id="svg8"
   inkscape:version="1.1.1 (c3084ef, 2021-09-22)"
   sodipodi:docname="juju.svg"
   inkscape:export-filename="/home/christian/work/juju_logo/juju.svg.png"
   inkscape:export-xdpi="96"
   inkscape:export-ydpi="96"
   xmlns:inkscape="http://www.inkscape.org/namespaces/inkscape"
   xmlns:sodipodi="http://sodipodi.sourceforge.net/DTD/sodipodi-0.dtd"
   xmlns="http://www.w3.org/2000/svg"
   xmlns:svg="http://www.w3.org/2000/svg"
   xmlns:rdf="http://www.w3.org/1999/02/22-rdf-syntax-ns#"
   xmlns:cc="http://creativecommons.org/ns#"
   xmlns:dc="http://purl.org/dc/elements/1.1/">
  <defs
     id="defs2" />
  <sodipodi:namedview
     id="base"
     pagecolor="#ffffff"
     bordercolor="#666666"
     borderopacity="1.0"
     inkscape:pageopacity="0"
     inkscape:pageshadow="2"
     inkscape:zoom="2.2178712"
     inkscape:cx="331.39887"
     inkscape:cy="429.46588"
     inkscape:document-units="mm"
     inkscape:current-layer="g2038"
     showgrid="true"
     inkscape:window-width="2131"
     inkscape:window-height="1639"
     inkscape:window-x="877"
     inkscape:window-y="25"
     inkscape:window-maximized="0"
     fit-margin-top="0"
     fit-margin-left="0"
     fit-margin-right="0"
     fit-margin-bottom="0"
     inkscape:snap-to-guides="false"
     inkscape:pagecheckerboard="false"
     showborder="true">
    <inkscape:grid
       type="xygrid"
       id="grid3713"
       originx="241.85852"
       originy="-132.08009" />
  </sodipodi:namedview>
  <metadata
     id="metadata5">
    <rdf:RDF>
      <cc:Work
         rdf:about="">
        <dc:format>image/svg+xml</dc:format>
        <dc:type
           rdf:resource="http://purl.org/dc/dcmitype/StillImage" />
      </cc:Work>
    </rdf:RDF>
  </metadata>
  <g
     inkscape:label="Layer 1"
     inkscape:groupmode="layer"
     id="layer1"
     transform="translate(241.85847,28.238795)">
    <flowRoot
       xml:space="preserve"
       id="flowRoot4645"
       style="font-style:normal;font-weight:normal;font-size:40px;line-height:1.25;font-family:sans-serif;letter-spacing:0px;word-spacing:0px;fill:#000000;fill-opacity:1;stroke:none"><flowRegion
         id="flowRegion4647"><rect
           id="rect4649"
           width="600"
           height="480"
           x="982.46582"
           y="1185.3229" /></flowRegion><flowPara
         id="flowPara4651" /></flowRoot>
    <text
       xml:space="preserve"
       style="font-style:normal;font-weight:normal;font-size:10.16px;line-height:1.25;font-family:sans-serif;text-align:center;letter-spacing:0px;word-spacing:0px;text-anchor:middle;fill:#000000;fill-opacity:1;stroke:none;stroke-width:0.105833"
       x="-146.65826"
       y="134.48534"
       id="text4655"><tspan
         sodipodi:role="line"
         id="tspan4653"
         x="-146.65826"
         y="134.48534"
         style="font-size:20.32px;text-align:center;text-anchor:middle;stroke-width:0.105833">Ju Jutsu </tspan><tspan
         sodipodi:role="line"
         x="-146.65826"
         y="156.79555"
         style="font-size:16.9333px;text-align:center;text-anchor:middle;stroke-width:0.105833"
         id="tspan892">TSV 1847 Weißenhorn</tspan></text>
    <g
       id="g2038"
       transform="translate(-10.527141)">
      <ellipse
         ry="22.3006"
         rx="22.67857"
         cx="-136.00502"
         cy="-4.2631946"
         id="path4567"
         style="fill:#ff0000;fill-opacity:0.00904978;stroke:#000000;stroke-width:3.35;stroke-linecap:round;stroke-miterlimit:4;stroke-dasharray:none;stroke-opacity:1" />
      <ellipse
         ry="22.3006"
         rx="22.67857"
         cx="-204.41872"
         cy="110.16909"
         id="path4567-5"
         style="fill:#ff0000;fill-opacity:0.00904978;stroke:#000000;stroke-width:3.35;stroke-linecap:round;stroke-miterlimit:4;stroke-dasharray:none;stroke-opacity:1" />
      <ellipse
         ry="22.3006"
         rx="22.67857"
         cx="-67.024361"
         cy="110.16909"
         id="path4567-6"
         style="fill:#ff0000;fill-opacity:0.00904978;stroke:#000000;stroke-width:3.35;stroke-linecap:round;stroke-miterlimit:4;stroke-dasharray:none;stroke-opacity:1" />
      <text
         id="text4641"
         y="56.05991"
         x="-148.4227"
         style="font-style:normal;font-weight:normal;font-size:5.29167px;line-height:1.25;font-family:sans-serif;letter-spacing:0px;word-spacing:0px;fill:#000000;fill-opacity:1;stroke:none;stroke-width:0.132292"
         xml:space="preserve"><tspan
           style="font-size:25.4px;stroke-width:0.132292"
           y="56.05991"
           x="-148.4227"
           id="tspan4639"
           sodipodi:role="line">柔</tspan><tspan
           id="tspan4643"
           style="font-size:25.4px;stroke-width:0.132292"
           y="87.809906"
           x="-148.4227"
           sodipodi:role="line">術</tspan></text>
      <g
         transform="matrix(0.5,0,0,0.5,-293.71557,118.48195)"
         id="g1421">
        <ellipse
           style="fill:#000000;fill-opacity:1;stroke:#000000;stroke-width:6.26111;stroke-linecap:round;stroke-miterlimit:4;stroke-dasharray:none;stroke-opacity:1"
           id="path991-0"
           cx="153.71622"
           cy="-0.97579753"
           rx="2.657424"
           ry="2.7170556" />
        <ellipse
           style="fill:#000000;fill-opacity:1;stroke:#000000;stroke-width:6.26111;stroke-linecap:round;stroke-miterlimit:4;stroke-dasharray:none;stroke-opacity:1"
           id="path991-2"
           cx="158.28983"
           cy="-35.135311"
           rx="2.657424"
           ry="2.7170556" />
        <path
           style="fill:none;stroke:#000000;stroke-width:3.965;stroke-linecap:round;stroke-linejoin:miter;stroke-miterlimit:4;stroke-dasharray:none;stroke-opacity:1"
           d="m 166.68752,-8.5937212 -3.96875,9.26041668"
           id="path989-7-1-3"
           inkscape:connector-curvature="0"
           sodipodi:nodetypes="cc" />
        <path
           style="fill:none;stroke:#000000;stroke-width:3.965;stroke-linecap:round;stroke-linejoin:miter;stroke-miterlimit:4;stroke-dasharray:none;stroke-opacity:1"
           d="M 162.71877,0.66669548 158.75002,-20.499971"
           id="path989-7-1-7"
           inkscape:connector-curvature="0"
           sodipodi:nodetypes="cc" />
        <path
           style="fill:none;stroke:#000000;stroke-width:3.965;stroke-linecap:round;stroke-linejoin:miter;stroke-miterlimit:4;stroke-dasharray:none;stroke-opacity:1"
           d="m 169.33335,-17.854137 -2.64583,9.2604158"
           id="path989-7-1-5"
           inkscape:connector-curvature="0"
           sodipodi:nodetypes="cc" />
        <path
           style="fill:none;stroke:#000000;stroke-width:3.965;stroke-linecap:round;stroke-linejoin:miter;stroke-miterlimit:4;stroke-dasharray:none;stroke-opacity:1"
           d="m 178.59377,1.9896122 -15.875,-1.32291672"
           id="path989-7-1-9"
           inkscape:connector-curvature="0"
           sodipodi:nodetypes="cc" />
        <path
           style="fill:none;stroke:#000000;stroke-width:3.965;stroke-linecap:round;stroke-linejoin:miter;stroke-miterlimit:4;stroke-dasharray:none;stroke-opacity:1"
           d="M 185.20835,-8.5937212 178.59377,1.9896122"
           id="path989-7-1-2"
           inkscape:connector-curvature="0"
           sodipodi:nodetypes="cc" />
        <path
           style="fill:none;stroke:#000000;stroke-width:3.965;stroke-linecap:round;stroke-linejoin:miter;stroke-miterlimit:4;stroke-dasharray:none;stroke-opacity:1"
           d="m 197.1146,-19.177054 -10.58333,9.2604162"
           id="path989-7-1-36"
           inkscape:connector-curvature="0"
           sodipodi:nodetypes="cc" />
        <path
           style="fill:none;stroke:#000000;stroke-width:3.965;stroke-linecap:round;stroke-linejoin:miter;stroke-miterlimit:4;stroke-dasharray:none;stroke-opacity:1"
           d="m 178.59377,1.9896122 11.90625,-3.96875"
           id="path989-7-1-1"
           inkscape:connector-curvature="0"
           sodipodi:nodetypes="cc" />
        <path
           style="fill:none;stroke:#000000;stroke-width:3.965;stroke-linecap:round;stroke-linejoin:miter;stroke-miterlimit:4;stroke-dasharray:none;stroke-opacity:1"
           d="M 207.69793,4.6354455 190.50002,-1.9791378"
           id="path989-7-1-29"
           inkscape:connector-curvature="0"
           sodipodi:nodetypes="cc" />
        <path
           style="fill:none;stroke:#000000;stroke-width:3.965;stroke-linecap:round;stroke-linejoin:miter;stroke-miterlimit:4;stroke-dasharray:none;stroke-opacity:1"
           d="m 191.82293,-9.9166378 14.55209,9.26041658"
           id="path989-7-1-31"
           inkscape:connector-curvature="0"
           sodipodi:nodetypes="cc" />
        <path
           style="fill:none;stroke:#000000;stroke-width:3.965;stroke-linecap:round;stroke-linejoin:miter;stroke-miterlimit:4;stroke-dasharray:none;stroke-opacity:1"
           d="m 182.56252,-20.499971 9.26041,10.5833332"
           id="path989-7-1-94"
           inkscape:connector-curvature="0"
           sodipodi:nodetypes="cc" />
        <path
           style="fill:none;stroke:#000000;stroke-width:3.965;stroke-linecap:round;stroke-linejoin:miter;stroke-miterlimit:4;stroke-dasharray:none;stroke-opacity:1"
           d="m 182.56252,-19.177054 -5.29167,7.937499"
           id="path989-7-1-78"
           inkscape:connector-curvature="0"
           sodipodi:nodetypes="cc" />
        <path
           style="fill:none;stroke:#000000;stroke-width:3.965;stroke-linecap:round;stroke-linejoin:miter;stroke-miterlimit:4;stroke-dasharray:none;stroke-opacity:1"
           d="M 177.27085,-11.239555 173.3021,-0.65622122"
           id="path989-7-1-4"
           inkscape:connector-curvature="0"
           sodipodi:nodetypes="cc" />
        <path
           style="fill:none;stroke:#000000;stroke-width:3.965;stroke-linecap:round;stroke-linejoin:miter;stroke-miterlimit:4;stroke-dasharray:none;stroke-opacity:1"
           d="m 169.33335,-29.760387 13.22917,9.260416"
           id="path989-7-1-50"
           inkscape:connector-curvature="0"
           sodipodi:nodetypes="cc" />
        <path
           style="fill:none;stroke:#000000;stroke-width:3.965;stroke-linecap:round;stroke-linejoin:miter;stroke-miterlimit:4;stroke-dasharray:none;stroke-opacity:1"
           d="m 179.91668,-42.989554 -11.90625,11.90625"
           id="path989-7-1-361"
           inkscape:connector-curvature="0"
           sodipodi:nodetypes="cc" />
        <path
           style="fill:none;stroke:#000000;stroke-width:3.965;stroke-linecap:round;stroke-linejoin:miter;stroke-miterlimit:4;stroke-dasharray:none;stroke-opacity:1"
           d="m 179.91668,-42.989554 2.64584,9.260417"
           id="path989-7-1-0"
           inkscape:connector-curvature="0"
           sodipodi:nodetypes="cc" />
        <path
           style="fill:none;stroke:#000000;stroke-width:3.965;stroke-linecap:round;stroke-linejoin:miter;stroke-miterlimit:4;stroke-dasharray:none;stroke-opacity:1"
           d="m 168.01043,-29.760387 -2.64583,10.583333"
           id="path989-7-1-6"
           inkscape:connector-curvature="0"
           sodipodi:nodetypes="cc" />
        <path
           style="fill:none;stroke:#000000;stroke-width:3.965;stroke-linecap:round;stroke-linejoin:miter;stroke-miterlimit:4;stroke-dasharray:none;stroke-opacity:1"
           d="m 165.3646,-19.177054 -10.58333,6.614583"
           id="path989-7-1-32"
           inkscape:connector-curvature="0"
           sodipodi:nodetypes="cc" />
      </g>
      <g
         transform="matrix(0.43084064,0,0,0.42643737,-165.90406,83.300322)"
         id="g1443">
        <path
           style="fill:none;stroke:#000000;stroke-width:3.965;stroke-linecap:round;stroke-linejoin:miter;stroke-miterlimit:4;stroke-dasharray:none;stroke-opacity:1"
           d="m 244.7396,76.072945 -1.32291,15.875"
           id="path989-7-18"
           inkscape:connector-curvature="0"
           sodipodi:nodetypes="cc" />
        <path
           style="fill:none;stroke:#000000;stroke-width:3.965;stroke-linecap:round;stroke-linejoin:miter;stroke-miterlimit:4;stroke-dasharray:none;stroke-opacity:1"
           d="m 205.0521,29.770862 14.55207,9.260407"
           id="path989"
           inkscape:connector-curvature="0"
           sodipodi:nodetypes="cc" />
        <ellipse
           style="fill:#000000;fill-opacity:1;stroke:#000000;stroke-width:6.26111;stroke-linecap:round;stroke-miterlimit:4;stroke-dasharray:none;stroke-opacity:1"
           id="path991"
           cx="240.89445"
           cy="43.040379"
           rx="2.657424"
           ry="2.7170556" />
        <ellipse
           style="fill:#000000;fill-opacity:1;stroke:#000000;stroke-width:6.26111;stroke-linecap:round;stroke-miterlimit:4;stroke-dasharray:none;stroke-opacity:1"
           id="path991-3"
           cx="215.76131"
           cy="76.68187"
           rx="2.657424"
           ry="2.7170556" />
        <path
           style="fill:none;stroke:#000000;stroke-width:3.965;stroke-linecap:round;stroke-linejoin:miter;stroke-miterlimit:4;stroke-dasharray:none;stroke-opacity:1"
           d="m 212.9896,52.260445 6.61459,-13.229166"
           id="path989-6"
           inkscape:connector-curvature="0"
           sodipodi:nodetypes="cc" />
        <path
           style="fill:none;stroke:#000000;stroke-width:3.965;stroke-linecap:round;stroke-linejoin:miter;stroke-miterlimit:4;stroke-dasharray:none;stroke-opacity:1"
           d="M 212.9896,52.260445 V 66.812529"
           id="path989-7"
           inkscape:connector-curvature="0"
           sodipodi:nodetypes="cc" />
        <path
           style="fill:none;stroke:#000000;stroke-width:3.965;stroke-linecap:round;stroke-linejoin:miter;stroke-miterlimit:4;stroke-dasharray:none;stroke-opacity:1"
           d="m 202.40627,60.197945 10.58333,6.614584"
           id="path989-7-5"
           inkscape:connector-curvature="0"
           sodipodi:nodetypes="cc" />
        <path
           style="fill:none;stroke:#000000;stroke-width:3.965;stroke-linecap:round;stroke-linejoin:miter;stroke-miterlimit:4;stroke-dasharray:none;stroke-opacity:1"
           d="m 202.40627,60.197945 -3.96875,-11.90625"
           id="path989-7-3"
           inkscape:connector-curvature="0"
           sodipodi:nodetypes="cc" />
        <path
           style="fill:none;stroke:#000000;stroke-width:3.965;stroke-linecap:round;stroke-linejoin:miter;stroke-miterlimit:4;stroke-dasharray:none;stroke-opacity:1"
           d="m 212.9896,66.812529 11.90625,-1.322917"
           id="path989-7-56"
           inkscape:connector-curvature="0"
           sodipodi:nodetypes="cc" />
        <path
           style="fill:none;stroke:#000000;stroke-width:3.965;stroke-linecap:round;stroke-linejoin:miter;stroke-miterlimit:4;stroke-dasharray:none;stroke-opacity:1"
           d="m 224.89585,65.489612 11.90625,5.291667"
           id="path989-7-2"
           inkscape:connector-curvature="0"
           sodipodi:nodetypes="cc" />
        <path
           style="fill:none;stroke:#000000;stroke-width:3.965;stroke-linecap:round;stroke-linejoin:miter;stroke-miterlimit:4;stroke-dasharray:none;stroke-opacity:1"
           d="m 212.9896,52.260445 13.22917,-1.322916"
           id="path989-7-9"
           inkscape:connector-curvature="0"
           sodipodi:nodetypes="cc" />
        <path
           style="fill:none;stroke:#000000;stroke-width:3.965;stroke-linecap:round;stroke-linejoin:miter;stroke-miterlimit:4;stroke-dasharray:none;stroke-opacity:1"
           d="m 228.8646,33.739612 -2.64583,17.197917"
           id="path989-7-1"
           inkscape:connector-curvature="0"
           sodipodi:nodetypes="cc" />
        <path
           style="fill:none;stroke:#000000;stroke-width:3.965;stroke-linecap:round;stroke-linejoin:miter;stroke-miterlimit:4;stroke-dasharray:none;stroke-opacity:1"
           d="M 248.70835,50.937529 244.7396,65.489612"
           id="path989-7-27"
           inkscape:connector-curvature="0"
           sodipodi:nodetypes="cc" />
        <path
           style="fill:none;stroke:#000000;stroke-width:3.965;stroke-linecap:round;stroke-linejoin:miter;stroke-miterlimit:4;stroke-dasharray:none;stroke-opacity:1"
           d="m 244.7396,65.489612 -10.58333,7.9375"
           id="path989-7-0"
           inkscape:connector-curvature="0"
           sodipodi:nodetypes="cc" />
        <path
           style="fill:none;stroke:#000000;stroke-width:3.965;stroke-linecap:round;stroke-linejoin:miter;stroke-miterlimit:4;stroke-dasharray:none;stroke-opacity:1"
           d="m 234.15627,65.489612 5.29167,-3.96875"
           id="path989-7-93"
           inkscape:connector-curvature="0"
           sodipodi:nodetypes="cc" />
        <path
           style="fill:none;stroke:#000000;stroke-width:3.965;stroke-linecap:round;stroke-linejoin:miter;stroke-miterlimit:4;stroke-dasharray:none;stroke-opacity:1"
           d="m 248.70835,50.937529 -7.9375,9.260416"
           id="path989-7-6"
           inkscape:connector-curvature="0"
           sodipodi:nodetypes="cc" />
        <path
           style="fill:none;stroke:#000000;stroke-width:3.965;stroke-linecap:round;stroke-linejoin:miter;stroke-miterlimit:4;stroke-dasharray:none;stroke-opacity:1"
           d="m 248.70835,50.937529 9.26042,13.229166"
           id="path989-7-06"
           inkscape:connector-curvature="0"
           sodipodi:nodetypes="cc" />
        <path
           style="fill:none;stroke:#000000;stroke-width:3.965;stroke-linecap:round;stroke-linejoin:miter;stroke-miterlimit:4;stroke-dasharray:none;stroke-opacity:1"
           d="m 244.7396,76.072945 13.22917,-11.90625"
           id="path989-7-26"
           inkscape:connector-curvature="0"
           sodipodi:nodetypes="cc" />
        <path
           style="fill:none;stroke:#000000;stroke-width:3.965;stroke-linecap:round;stroke-linejoin:miter;stroke-miterlimit:4;stroke-dasharray:none;stroke-opacity:1"
           d="m 257.96877,65.489612 -3.96875,11.90625"
           id="path989-7-7"
           inkscape:connector-curvature="0"
           sodipodi:nodetypes="cc" />
        <path
           style="fill:none;stroke:#000000;stroke-width:3.965;stroke-linecap:round;stroke-linejoin:miter;stroke-miterlimit:4;stroke-dasharray:none;stroke-opacity:1"
           d="m 254.00002,78.718779 5.29167,13.229166"
           id="path989-7-92"
           inkscape:connector-curvature="0"
           sodipodi:nodetypes="cc" />
      </g>
      <g
         transform="matrix(0.5,0,0,0.5,-178.62182,74.825706)"
         id="g1531">
        <path
           transform="translate(-1.0208333e-5)"
           style="fill:none;stroke:#000000;stroke-width:3.965;stroke-linecap:round;stroke-linejoin:miter;stroke-miterlimit:4;stroke-dasharray:none;stroke-opacity:1"
           d="m 76.729187,-143.53122 5.291666,-11.90625"
           id="path989-7-1-06"
           inkscape:connector-curvature="0"
           sodipodi:nodetypes="cc" />
        <ellipse
           transform="translate(-1.0208333e-5)"
           ry="2.7170556"
           rx="2.657424"
           cy="-182.32809"
           cx="82.306381"
           id="path991-2-1"
           style="fill:#000000;fill-opacity:1;stroke:#000000;stroke-width:6.26111;stroke-linecap:round;stroke-miterlimit:4;stroke-dasharray:none;stroke-opacity:1" />
        <path
           transform="translate(-1.0208333e-5)"
           style="fill:none;stroke:#000000;stroke-width:3.965;stroke-linecap:round;stroke-linejoin:miter;stroke-miterlimit:4;stroke-dasharray:none;stroke-opacity:1"
           d="m 66.145853,-135.59372 10.583334,-7.9375"
           id="path989-7-1-06-5"
           inkscape:connector-curvature="0"
           sodipodi:nodetypes="cc" />
        <path
           transform="translate(-1.0208333e-5)"
           style="fill:none;stroke:#000000;stroke-width:3.965;stroke-linecap:round;stroke-linejoin:miter;stroke-miterlimit:4;stroke-dasharray:none;stroke-opacity:1"
           d="m 83.34377,-155.43747 10.583333,7.9375"
           id="path989-7-1-06-54"
           inkscape:connector-curvature="0"
           sodipodi:nodetypes="cc" />
        <path
           transform="translate(-1.0208333e-5)"
           style="fill:none;stroke:#000000;stroke-width:3.965;stroke-linecap:round;stroke-linejoin:miter;stroke-miterlimit:4;stroke-dasharray:none;stroke-opacity:1"
           d="m 93.927103,-147.49997 6.614587,14.55208"
           id="path989-7-1-06-7"
           inkscape:connector-curvature="0"
           sodipodi:nodetypes="cc" />
        <path
           style="fill:none;stroke:#000000;stroke-width:3.965;stroke-linecap:round;stroke-linejoin:miter;stroke-miterlimit:4;stroke-dasharray:none;stroke-opacity:1"
           d="m 82.020853,-171.31247 v 15.875"
           id="path989-7-1-06-6"
           inkscape:connector-curvature="0"
           sodipodi:nodetypes="cc" />
        <path
           style="fill:none;stroke:#000000;stroke-width:3.965;stroke-linecap:round;stroke-linejoin:miter;stroke-miterlimit:4;stroke-dasharray:none;stroke-opacity:1"
           d="m 104.51044,-169.98955 -22.489587,-1.32292"
           id="path989-7-1-06-56"
           inkscape:connector-curvature="0"
           sodipodi:nodetypes="cc" />
        <path
           style="fill:none;stroke:#000000;stroke-width:3.965;stroke-linecap:round;stroke-linejoin:miter;stroke-miterlimit:4;stroke-dasharray:none;stroke-opacity:1"
           d="m 82.020853,-171.31247 -10.583333,7.9375"
           id="path989-7-1-06-9"
           inkscape:connector-curvature="0"
           sodipodi:nodetypes="cc" />
        <path
           style="fill:none;stroke:#000000;stroke-width:3.965;stroke-linecap:round;stroke-linejoin:miter;stroke-miterlimit:4;stroke-dasharray:none;stroke-opacity:1"
           d="m 71.43752,-163.37497 3.96875,5.29167"
           id="path989-7-1-06-3"
           inkscape:connector-curvature="0"
           sodipodi:nodetypes="cc" />
      </g>
      <path
         inkscape:connector-curvature="0"
         id="path3715-6"
         d="m -162.7749,23.15626 -29.10417,50.409895"
         style="fill:#ff0000;fill-opacity:1;stroke:#000000;stroke-width:7.766;stroke-linecap:round;stroke-linejoin:miter;stroke-miterlimit:4;stroke-dasharray:none;stroke-opacity:1" />
      <path
         id="path194"
         d="m -169.24247,31.430933 -0.68729,1.19043 2.93804,1.69628 -0.2558,0.443058 -2.93804,-1.69628 -0.6873,1.19043 -0.39382,-0.227375 1.63039,-2.823918 z m 1.12808,4.831231 -0.75964,1.315744 -0.34013,-0.19637 0.25193,-0.436347 -2.65162,-1.530915 -0.25193,0.436347 -0.34012,-0.19637 0.75964,-1.315744 0.34013,0.19637 -0.25193,0.436347 2.65162,1.530915 0.25193,-0.436347 z m -1.0852,1.87963 -1.26737,2.195141 -3.33187,-1.923655 1.26737,-2.195141 0.39382,0.227375 -1.01157,1.752091 0.91297,0.5271 1.01157,-1.752091 0.39382,0.227375 -1.01157,1.752091 1.23743,0.71443 1.01157,-1.752091 z m -1.55547,2.694145 -0.33202,0.575075 -2.24451,0.461438 0.16235,0.535302 1.13002,0.652415 -0.25579,0.44305 -3.33187,-1.923655 0.25579,-0.44305 1.73866,1.003815 -0.8046,-2.621646 0.31006,-0.537039 0.70723,2.392383 z m -2.06447,3.575775 -0.2558,0.44305 -1.63125,-0.941805 -0.95989,1.662578 1.63125,0.941805 -0.2558,0.443059 -3.33187,-1.923655 0.2558,-0.443059 1.30679,0.754475 0.95989,-1.662578 -1.30679,-0.754475 0.2558,-0.44305 z m -2.07747,3.040183 q -0.0174,0.154071 -0.0285,0.281898 -0.01,0.125609 -0.0514,0.316411 -0.0363,0.161052 -0.10021,0.338959 -0.0604,0.176973 -0.17148,0.369412 -0.20929,0.362501 -0.48181,0.601976 -0.27347,0.235945 -0.61712,0.329916 -0.3366,0.09209 -0.73306,0.0243 -0.3987,-0.06907 -0.8328,-0.319704 -0.41173,-0.23771 -0.66902,-0.541399 -0.25727,-0.303684 -0.35444,-0.652165 -0.0943,-0.337899 -0.0353,-0.703628 0.0603,-0.367968 0.27216,-0.734946 0.15503,-0.26852 0.37363,-0.497347 0.21989,-0.23107 0.57189,-0.463444 l 0.52585,0.3036 -0.0194,0.0336 q -0.38938,0.142166 -0.65087,0.3522 -0.26149,0.210034 -0.43978,0.518833 -0.14598,0.252854 -0.18075,0.504282 -0.0357,0.247886 0.0448,0.506243 0.0787,0.251299 0.28563,0.487138 0.206,0.232324 0.54164,0.426109 0.35132,0.20283 0.65843,0.254834 0.3084,0.04977 0.55384,-0.0084 0.25602,-0.06103 0.45672,-0.222625 0.19973,-0.165141 0.33409,-0.397859 0.18474,-0.319988 0.23658,-0.662993 0.0518,-0.343014 -0.0266,-0.713526 l 0.0181,-0.03135 z m -1.68199,3.471393 -0.75965,1.315744 -0.34012,-0.19637 0.25192,-0.436347 -2.65162,-1.530915 -0.25192,0.436347 -0.34013,-0.19637 0.75965,-1.315744 0.34012,0.19637 -0.25192,0.436347 2.65162,1.530915 0.25192,-0.436347 z m -0.93406,1.617831 -1.21698,2.107871 -3.33187,-1.923655 0.2558,-0.443059 2.93805,1.69628 0.96118,-1.664812 z m -1.46502,2.537497 -0.33202,0.575076 -1.96807,0.349548 -0.36044,0.624301 1.32469,0.76481 -0.2558,0.443058 -3.33187,-1.923655 0.53873,-0.933099 q 0.17441,-0.302087 0.33095,-0.480222 0.15429,-0.179445 0.34802,-0.282406 0.21877,-0.115361 0.45144,-0.115284 0.23173,-0.0035 0.498,0.150275 0.36027,0.208 0.49953,0.53007 0.13702,0.320776 0.0766,0.709575 z m -2.99245,-0.34631 q -0.14322,-0.08269 -0.28255,-0.09454 -0.14029,-0.01541 -0.28357,0.05706 -0.12042,0.05877 -0.22128,0.176561 -0.10308,0.116526 -0.20643,0.295533 l -0.30101,0.521374 1.25756,0.726055 0.25838,-0.447528 q 0.12144,-0.21034 0.17611,-0.387628 0.0524,-0.178588 0.015,-0.346372 -0.0359,-0.154953 -0.12955,-0.271717 -0.0947,-0.120245 -0.28263,-0.228765 z m 0.88276,4.000401 -0.2558,0.443058 -1.63126,-0.941805 -0.95989,1.662579 1.63126,0.941805 -0.2558,0.443058 -3.33187,-1.923655 0.2558,-0.443058 1.30679,0.754475 0.95989,-1.662579 -1.30679,-0.754475 0.2558,-0.443058 z m -1.87844,3.253553 -1.26737,2.195141 -3.33187,-1.923655 1.26737,-2.195141 0.39382,0.227375 -1.01157,1.752091 0.91297,0.5271 1.01157,-1.752091 0.39382,0.227375 -1.01157,1.752091 1.23743,0.71443 1.01157,-1.752091 z"
         style="font-size:5.29167px;line-height:1.25;letter-spacing:0px;word-spacing:0px;fill:#ffffff;stroke-width:0.132292" />
      <path
         inkscape:connector-curvature="0"
         id="path3715-7"
         d="m -109.54669,23.567971 29.104167,50.409897"
         style="fill:#ff0000;fill-opacity:1;stroke:#000000;stroke-width:7.766;stroke-linecap:round;stroke-linejoin:miter;stroke-miterlimit:4;stroke-dasharray:none;stroke-opacity:1" />
      <path
         id="path341"
         d="m -82.969213,66.674027 -0.687297,-1.190433 -2.938043,1.69628 -0.255799,-0.443056 2.938043,-1.69628 -0.687297,-1.190433 0.393825,-0.227375 1.630393,2.823922 z m -1.66269,-2.879862 -0.972809,-1.684956 -0.93982,0.542605 0.835867,1.447764 -0.393825,0.227375 -0.835867,-1.447764 -1.604398,0.9263 -0.255799,-0.443056 3.331868,-1.923655 1.228608,2.128012 z m -4.458622,-0.937441 -0.272594,-0.472146 0.740003,-0.862837 -0.831991,-1.441051 -1.117241,0.209442 -0.259674,-0.449769 4.032084,-0.710845 0.341065,0.590741 z m 0.769004,-1.691106 1.298543,-1.528418 -1.974213,0.358124 z m -2.803766,-1.833205 -0.255798,-0.443056 1.631245,-0.9418 -0.95989,-1.662579 -1.631246,0.9418 -0.255798,-0.443056 3.331868,-1.923655 0.255798,0.443056 -1.306789,0.754475 0.959891,1.662579 1.306789,-0.754475 0.255798,0.443056 z m -1.594142,-3.319235 q -0.124749,-0.09207 -0.229884,-0.165631 -0.103869,-0.07131 -0.24832,-0.202723 -0.121329,-0.111947 -0.243445,-0.256258 -0.123076,-0.140774 -0.23418,-0.333212 -0.20929,-0.362501 -0.280412,-0.718249 -0.06761,-0.354796 0.02284,-0.699401 0.08856,-0.33755 0.345487,-0.646998 0.259179,-0.310749 0.693283,-0.561379 0.411726,-0.23771 0.803371,-0.308682 0.391635,-0.07097 0.742006,0.01913 0.339784,0.08726 0.627025,0.321218 0.288524,0.236199 0.500398,0.603174 0.155029,0.268519 0.243901,0.57225 0.09016,0.305969 0.115408,0.726992 l -0.525851,0.3036 -0.01938,-0.03356 q 0.07158,-0.408301 0.02043,-0.739778 -0.05115,-0.331476 -0.229435,-0.640273 -0.145986,-0.252855 -0.346342,-0.408682 -0.196812,-0.154889 -0.46086,-0.214272 -0.25696,-0.05751 -0.564675,0.0038 -0.304189,0.06225 -0.639835,0.256034 -0.351312,0.20283 -0.549905,0.442796 -0.19731,0.242209 -0.269624,0.483857 -0.07515,0.252236 -0.03556,0.506848 0.04315,0.25554 0.17751,0.488256 0.184743,0.319985 0.455871,0.536392 0.271136,0.216403 0.63125,0.333697 l 0.01809,0.03133 z m -1.18719,-3.694414 q -0.194674,0.112395 -0.437848,0.130466 -0.241873,0.0203 -0.468208,-0.06682 -0.246559,-0.09633 -0.465351,-0.289252 -0.217483,-0.190691 -0.41127,-0.52634 -0.207997,-0.360263 -0.307537,-0.68767 -0.09825,-0.32517 -0.138038,-0.699009 l 0.554941,-0.320395 0.01809,0.03133 q -0.06435,0.374295 0.01272,0.771358 0.07709,0.397059 0.245035,0.687954 0.237712,0.411729 0.523882,0.55083 0.28747,0.141333 0.544793,-0.0072 0.221529,-0.1279 0.263395,-0.298265 0.04316,-0.168127 -0.02656,-0.423245 -0.05212,-0.193675 -0.13671,-0.407388 -0.0833,-0.211476 -0.165131,-0.456617 -0.161818,-0.497316 -0.05984,-0.842616 0.10551,-0.344352 0.470245,-0.554932 0.418446,-0.24159 0.888845,-0.04178 0.472642,0.198519 0.786577,0.74227 0.20283,0.351312 0.304953,0.683195 0.102124,0.331883 0.13414,0.614736 l -0.523617,0.30231 -0.01809,-0.03133 q 0.0513,-0.283221 -0.0231,-0.654976 -0.07088,-0.370806 -0.258207,-0.695266 -0.205414,-0.355788 -0.478413,-0.487575 -0.271715,-0.129545 -0.504425,0.0048 -0.208106,0.12015 -0.264687,0.296027 -0.05658,0.175878 0.03708,0.482809 0.05133,0.16131 0.159004,0.451204 0.107672,0.289893 0.166636,0.500501 0.115999,0.428296 0.02537,0.731239 -0.09063,0.302943 -0.448654,0.509648 z m -1.102266,-3.5525 q -0.454248,0.26226 -0.938441,0.276273 -0.4829,0.01625 -0.87644,-0.195119 -0.272747,-0.146851 -0.498184,-0.392621 -0.224103,-0.243557 -0.488945,-0.702276 l -0.485759,-0.841359 3.331869,-1.923655 0.480591,0.832408 q 0.281636,0.487809 0.375381,0.815579 0.09729,0.328708 0.0892,0.598914 -0.0162,0.462854 -0.259946,0.85718 -0.243734,0.394321 -0.729306,0.674666 z m -0.260498,-0.467195 q 0.391591,-0.226085 0.581304,-0.517612 0.189713,-0.291527 0.187787,-0.651424 -0.0018,-0.261509 -0.08719,-0.507582 -0.08313,-0.247378 -0.26141,-0.556174 l -0.240295,-0.416204 -2.571065,1.484405 0.240295,0.416204 q 0.184744,0.319985 0.368711,0.530026 0.18526,0.21228 0.427754,0.337811 0.302274,0.156655 0.632895,0.129866 0.331912,-0.02455 0.721268,-0.249346 z m -3.538902,-2.273998 -0.316518,-0.548227 2.068467,-3.30061 -2.980554,1.720825 -0.23901,-0.413966 3.331872,-1.923655 0.396617,0.686961 -1.889,3.012015 2.720991,-1.570965 0.239004,0.413967 z m -0.619133,-4.16261 q -0.3625,0.20929 -0.679762,0.285052 -0.31374,0.07672 -0.59739,-0.0012 -0.26954,-0.07411 -0.48093,-0.259373 -0.21136,-0.185279 -0.38835,-0.491837 -0.18087,-0.313273 -0.23243,-0.593789 -0.0516,-0.280516 0.0178,-0.532409 0.0788,-0.287186 0.2919,-0.517602 0.21436,-0.22818 0.59251,-0.44651 l 1.993759,-1.151095 0.255798,0.443056 -2.016137,1.164015 q -0.27075,0.15632 -0.40672,0.282557 -0.13467,0.128466 -0.21183,0.289379 -0.0886,0.182431 -0.0656,0.392891 0.0243,0.212711 0.16126,0.449903 0.13823,0.23943 0.30675,0.365903 0.17076,0.125175 0.37656,0.140619 0.17793,0.01363 0.36195,-0.04488 0.187544,-0.05756 0.431452,-0.198384 l 2.027313,-1.17047 0.255799,0.443056 z m -3.193302,-2.440715 -1.26736,-2.195141 3.33187,-1.923655 1.267362,2.195141 -0.393825,0.227375 -1.011567,-1.752085 -0.91296,0.5271 1.01156,1.752085 -0.39383,0.22738 -1.01157,-1.752085 -1.23742,0.714425 1.01157,1.752085 z m -1.51541,-2.624771 -0.33202,-0.575078 0.68132,-1.879163 -0.36044,-0.624306 -1.32469,0.76481 -0.2558,-0.443056 3.33186,-1.923655 0.53873,0.933103 q 0.17441,0.302083 0.25041,0.526722 0.0783,0.223339 0.0705,0.442601 -0.009,0.247135 -0.12587,0.448599 -0.11287,0.202408 -0.37915,0.356148 -0.36026,0.207995 -0.70881,0.167565 -0.34631,-0.04172 -0.65283,-0.288418 z m 1.79614,-2.41838 q 0.1432,-0.08268 0.22314,-0.197453 0.0835,-0.11382 0.0924,-0.274106 0.009,-0.133669 -0.0423,-0.279916 -0.0494,-0.147523 -0.15273,-0.326534 l -0.30102,-0.521374 -1.25756,0.726055 0.25838,0.44753 q 0.12144,0.210341 0.24764,0.346326 0.12845,0.134686 0.29248,0.186181 0.15211,0.04644 0.30008,0.02366 0.15149,-0.02183 0.33945,-0.13035 z m -0.74041,-2.538165 -0.97281,-1.684956 -0.93982,0.542605 0.83587,1.447764 -0.39383,0.227375 -0.83586,-1.447764 -1.6044,0.9263 -0.2558,-0.443056 3.33187,-1.923655 1.2286,2.128012 z"
         style="font-size:5.29167px;line-height:1.25;letter-spacing:0px;word-spacing:0px;fill:#ffffff;stroke-width:0.132292" />
      <path
         style="fill:#ff0000;fill-opacity:1;stroke:#000000;stroke-width:7.766;stroke-linecap:round;stroke-linejoin:miter;stroke-miterlimit:4;stroke-dasharray:none;stroke-opacity:1"
         d="m -165.37377,110.16909 h 58.20834"
         id="path3715"
         inkscape:connector-curvature="0" />
      <path
         id="path397"
         d="m -124.03002,108.70277 h -1.3746 v 3.39256 h -0.5116 v -3.39256 h -1.37459 v -0.45475 h 3.26079 z m -3.32022,3.39256 h -0.66404 l -1.52187,-1.71308 -0.38241,0.40825 v 1.30483 h -0.5116 v -3.84731 h 0.5116 v 2.00763 l 1.86811,-2.00763 h 0.62011 l -1.71824,1.80867 z m -3.90674,0 h -2.53473 v -3.84731 h 2.53473 v 0.45475 h -2.02313 v 1.0542 h 2.02313 v 0.45475 h -2.02313 v 1.42886 h 2.02313 z m -3.21169,-2.68459 q 0,0.2558 -0.0904,0.47542 -0.0879,0.21704 -0.24805,0.37724 -0.19896,0.19895 -0.47026,0.29972 -0.2713,0.0982 -0.68471,0.0982 h -0.5116 v 1.43402 h -0.51159 v -3.84731 h 1.04386 q 0.34623,0 0.58653,0.0594 0.24029,0.0568 0.42633,0.18087 0.21962,0.14728 0.33848,0.36691 0.12144,0.21962 0.12144,0.55552 z m -0.53227,0.0129 q 0,-0.19896 -0.0698,-0.34624 -0.0698,-0.14727 -0.21187,-0.24029 -0.12403,-0.0801 -0.28423,-0.11369 -0.15761,-0.0362 -0.40049,-0.0362 h -0.50643 v 1.53737 h 0.4315 q 0.31006,0 0.50385,-0.0543 0.19378,-0.0568 0.31522,-0.17828 0.12144,-0.12403 0.17054,-0.26097 0.0517,-0.13694 0.0517,-0.30747 z m -2.80603,1.57356 q 0,0.2248 -0.10594,0.44442 -0.10335,0.21963 -0.29197,0.37207 -0.2067,0.16537 -0.48317,0.25838 -0.27389,0.093 -0.66146,0.093 -0.416,0 -0.74931,-0.0775 -0.33073,-0.0775 -0.67438,-0.22996 v -0.64079 h 0.0362 q 0.29198,0.24288 0.67438,0.37465 0.38241,0.13178 0.71831,0.13178 0.47542,0 0.73897,-0.17829 0.26613,-0.17828 0.26613,-0.47542 0,-0.2558 -0.12661,-0.37724 -0.12402,-0.12144 -0.37982,-0.18862 -0.19378,-0.0517 -0.42116,-0.0853 -0.22479,-0.0336 -0.47801,-0.0853 -0.51159,-0.10852 -0.75964,-0.36948 -0.24546,-0.26355 -0.24546,-0.68472 0,-0.48317 0.40824,-0.79065 0.40824,-0.31006 1.03611,-0.31006 0.40566,0 0.74414,0.0775 0.33848,0.0775 0.59945,0.1912 v 0.60462 h -0.0362 q -0.21963,-0.18604 -0.57878,-0.30748 -0.35657,-0.12402 -0.73122,-0.12402 -0.41083,0 -0.66146,0.17053 -0.24805,0.17053 -0.24805,0.43925 0,0.24029 0.12403,0.37724 0.12402,0.13694 0.43666,0.20929 0.16537,0.0362 0.47026,0.0879 0.30489,0.0517 0.51676,0.10593 0.42892,0.11369 0.64596,0.34365 0.21704,0.22996 0.21704,0.64337 z m -3.6096,1.09813 h -2.53473 v -3.84731 h 2.53473 v 0.45475 h -2.02313 v 1.0542 h 2.02313 v 0.45475 h -2.02313 v 1.42886 h 2.02313 z m -3.03083,0 h -0.66404 l -1.28674,-1.52962 h -0.72089 v 1.52962 h -0.5116 v -3.84731 h 1.07746 q 0.34881,0 0.58136,0.0465 0.23254,0.0439 0.41858,0.16019 0.20929,0.13178 0.32556,0.33332 0.11886,0.19895 0.11886,0.50642 0,0.416 -0.20929,0.69764 -0.20929,0.27905 -0.5762,0.42116 z m -1.19631,-2.76469 q 0,-0.16537 -0.0594,-0.29197 -0.0569,-0.12919 -0.19121,-0.21704 -0.1111,-0.0749 -0.26355,-0.10336 -0.15244,-0.031 -0.35915,-0.031 h -0.60203 v 1.45211 h 0.51677 q 0.24288,0 0.42374,-0.0414 0.18087,-0.0439 0.30748,-0.16019 0.11627,-0.10852 0.17053,-0.24805 0.0568,-0.14211 0.0568,-0.35915 z"
         style="font-size:5.29167px;line-height:1.25;letter-spacing:0px;word-spacing:0px;fill:#ffffff;stroke-width:0.132292" />
    </g>
    <flowRoot
       xml:space="preserve"
       id="flowRoot1970"
       style="font-style:normal;font-weight:normal;font-size:40px;line-height:1.25;font-family:sans-serif;letter-spacing:0px;word-spacing:0px;fill:#000000;fill-opacity:1;stroke:none"
       transform="matrix(0.26458333,0,0,0.26458333,-434.56906,-365.86666)"><flowRegion
         id="flowRegion1972"><rect
           id="rect1974"
           width="1580"
           height="1360"
           x="662.46582"
           y="485.32291" /></flowRegion><flowPara
         id="flowPara1976" /></flowRoot>
  </g>
</svg>
